<?xml version="1.0" encoding="utf-8"?>
<!-- Generator: Adobe Illustrator 25.2.1, SVG Export Plug-In . SVG Version: 6.00 Build 0)  -->
<svg version="1.1" xmlns="http://www.w3.org/2000/svg" xmlns:xlink="http://www.w3.org/1999/xlink" x="0px" y="0px"
	 viewBox="0 0 595.28 841.89" style="enable-background:new 0 0 595.28 841.89;" xml:space="preserve">
<style type="text/css">
	.st0{fill:#010202;}
	.st1{fill:#FFFFFF;}
	.st2{display:none;}
	.st3{display:inline;}
	.st4{font-family:'GoboldExtra2-Italic';}
	.st5{font-size:18px;}
	.st6{letter-spacing:3;}
</style>
<g id="Camada_1">
	<circle class="st0" cx="279.23" cy="363.54" r="190.63"/>
	<g>
		<g>
			<path class="st1" d="M229.53,370.71c4.73,1.51,9.27,3.18,13.94,4.4c9.48,2.46,19.08,4.15,28.99,3.29
				c2.96-0.26,4.81-1.48,6.17-4.06c2.7-5.12,5.66-10.11,8.46-15.19c2.41-4.36,5.93-5.89,10.91-4.64c5.2,1.3,10.3,2.68,13.48,7.39
				c0.86,1.27,1.25,3.72,2.18,3.89c1.85,0.32,3.98-0.39,5.89-0.98c16.18-5.02,32.8-7.19,49.71-6.88
				c22.89,0.43,44.69-4.26,65.87-12.37c8.22-3.15,6.25-2.93,9.71,3.94c2.91,5.76,6.51,11.19,9.83,16.76
				c0.54,0.91,1.18,1.76,2.04,3.04c-3.28,1.05-6.13,2-9,2.87c-17.81,5.39-35.64,10.73-54.18,13.25c-6.26,0.85-12.54,1.54-18.83,2.06
				c-7.53,0.61-13.98-1.79-19.39-7.01c-4.38-4.23-9.3-7.31-15.94-6.89c-5.73,0.36-8.74,2.63-9.97,8.16
				c-0.25,1.12-0.63,2.22-1.09,3.8c-1.5-1.03-2.64-1.78-3.75-2.58c-6.22-4.48-16.78-2.47-20.63,4.09c-1.46,2.48-2.58,5.19-3.57,7.89
				c-7.58,20.6-14.77,41.32-18.46,62.99c-2.47,14.5-4.9,29.02-6.94,43.58c-0.82,5.88-0.53,11.9-0.82,17.86
				c-0.11,2.17-0.27,4.36-0.69,6.49c-0.62,3.23-2.33,4.77-5.7,4.7c-8.85-0.18-17.31-2.38-25.51-5.49c-2.22-0.85-3.48-2.82-3.41-5.23
				c0.14-4.96,0.03-9.96,0.71-14.86c1.78-12.79,3.57-25.59,6.02-38.27c4.86-25.1,12.69-49.34,23.33-72.7
				c0.21-0.45,0.39-0.92,0.59-1.37c1.06-2.35,0.71-3.53-2.33-3.89c-14.39-1.73-26.15-8.97-37.32-17.36
				C229.7,371.31,229.68,371.07,229.53,370.71z M415.75,373.72c0-0.14-0.01-0.29-0.01-0.43c1.84-0.57,3.76-0.96,5.49-1.75
				c1.97-0.91,4.13-1.87,5.52-3.41c0.92-1.02,1.26-3.34,0.7-4.6c-0.47-1.06-2.54-1.82-3.99-2c-1.87-0.23-3.9-0.02-5.73,0.48
				c-11.1,3-22.25,5.69-33.77,6.66c-1.11,0.09-2.54,0.08-3.22,0.72c-1.97,1.86-4.31,1.21-6.55,1.46c-5.44,0.6-10.91,1.09-16.27,2.1
				c-3.67,0.69-3.93,1.95-1.64,4.93c2.87,3.72,6.96,5.64,11.49,6.1c5.13,0.52,10.4,0.85,15.51,0.36c18.61-1.78,36.6-6.5,54.44-11.8
				c1.25-0.37,2.42-0.97,3.63-1.47c-0.09-0.23-0.18-0.45-0.26-0.68c-4.72,1.14-9.44,2.28-14.15,3.43
				c-4.74,1.15-9.47,2.37-14.22,3.45c-4.86,1.1-9.72,2.19-14.63,3.06c-4.66,0.83-9.37,1.37-14.06,2.03
				c-0.05-0.31-0.1-0.62-0.14-0.93c11.78-2.73,24.03-3.55,35.37-8.16C418.08,373.41,416.91,373.57,415.75,373.72z M350.83,370.43
				c-6.24-4.86-6.6-4.95-14.73-4.36c-0.67,0.05-1.37-0.22-2.06-0.28c-2.18-0.16-4.46-0.75-6.53-0.34
				c-3.98,0.78-7.86,2.04-11.73,3.26c-4.79,1.51-7.93,5.93-8.18,11.53c1.32-0.31,2.73-0.34,3.77-0.95
				c3.99-2.35,7.99-1.96,11.98-0.26c2.23,0.95,3.46,0.3,4.69-1.66c3.5-5.6,8.79-7.38,15.24-6.22c1.8,0.32,3.61,0.72,5.31,1.36
				c1.82,0.69,3.04,0.54,3.99-1.3c1.45-2.8,3.83-4.17,7.1-4.35c8.63-0.46,17.26-0.92,25.87-1.65c7.29-0.61,14.68-1.02,21.79-2.56
				c7.29-1.57,14.31-4.35,21.42-6.71c3.76-1.25,7.48-2.62,11.12-4.16c0.68-0.29,0.89-1.61,1.32-2.46c-0.85-0.23-1.68-0.6-2.54-0.64
				c-0.55-0.03-1.15,0.37-1.69,0.63c-10.78,5.21-22.39,7.88-34.01,10.47c-3.95,0.88-8.03,1.23-12.06,1.79
				c-0.16,0.02-0.37-0.31-0.58-0.5c0.84-0.41,1.57-0.77,3.11-1.53c-1.51-0.07-2.09-0.17-2.65-0.11c-7.49,0.82-14.98,1.69-22.47,2.48
				C361.38,362.67,354.71,363.85,350.83,370.43z M244.98,486.86c0.43,0.1,0.85,0.2,1.28,0.3c6.66-25.57,13.32-51.13,19.98-76.7
				c-0.43-0.11-0.86-0.22-1.29-0.32C255.05,434.89,249.13,460.65,244.98,486.86z M286.74,424.42c-8.56,21.51-11.6,44.07-13.89,66.79
				C277.47,468.94,282.1,446.68,286.74,424.42z M257.12,382.45c-0.1,0.22-0.2,0.45-0.3,0.67c0.83,0.43,1.62,1.06,2.5,1.25
				c3.35,0.73,6.74,1.29,10.1,1.95c2.73,0.54,3.62-0.86,3.81-3.34c-5.18-0.23-10.21-0.46-15.25-0.68
				C257.7,382.29,257.41,382.4,257.12,382.45z M261.83,516.16c-2.03-1.43-3.15-2.84-4.42-2.98c-1.88-0.21-3.51,1.23-2.97,3.16
				c0.32,1.16,1.97,2.65,3.11,2.72C258.66,519.12,259.87,517.57,261.83,516.16z M295.65,381.49c-0.01-0.42-0.02-0.83-0.03-1.25
				c-1.1-0.74-2.32-2.21-3.27-2.06c-1.31,0.21-3.15,1.46-3.43,2.58c-0.42,1.68,0.92,3.48,2.97,3.15
				C293.25,383.7,294.41,382.34,295.65,381.49z M255.08,511.81c-0.38-0.18-0.77-0.36-1.15-0.54c-0.97,1.53-2.52,2.99-2.72,4.6
				c-0.17,1.38,1.21,2.95,1.9,4.44c0.55-0.1,1.11-0.2,1.66-0.3C251.74,517.02,253.19,514.39,255.08,511.81z M288.21,385.68
				c0.39-0.2,0.79-0.39,1.18-0.59c-0.62-1.39-1.76-2.8-1.72-4.18c0.05-1.44,1.23-2.84,1.92-4.26c-0.32-0.17-0.65-0.34-0.97-0.51
				c-0.83,1.5-2.28,2.98-2.32,4.5C286.27,382.3,287.52,384,288.21,385.68z M290.01,359.07c1.82-1.14,3.61-2.26,5.35-3.35
				C293.19,353.94,290.73,355.32,290.01,359.07z"/>
			<path class="st1" d="M232.93,335.9c-1.62,1.13-3.15,2.42-4.87,3.38c-9.94,5.51-19.4,0.15-19.89-10.96
				c-0.44-9.76,2.87-18.59,6.43-27.39c1.93-4.78,4.13-9.45,6.19-14.14c7.42,1.45,12.91,8.18,7.89,15.45
				c-3.39,4.91-6.06,10.39-8.32,15.91c-1.59,3.89-2.42,8.22-2.72,12.42c-0.3,4.18,1.98,5.6,6.08,4.24
				c5.57-1.83,9.83-5.65,12.22-10.66c3.25-6.81,5.62-14.02,8.29-21.09c2.49-6.6,4.88-13.25,7.42-20.19c4.21,1.13,7.44,3.46,9.59,6.9
				c1.18,1.89,2.1,1.77,3.89,1.11c3.01-1.11,6.11-2.43,9.25-2.68c7.41-0.59,10.92,2.51,11.85,9.78c0.79,6.18-0.72,12.06-2.69,17.85
				c-0.58,1.7-1.31,3.34-1.99,5c-1.74,4.23-1.42,4.65,3.99,4.68c0-1.04-0.01-2.09,0-3.14c0.22-14,6.64-24.9,17.6-33.55
				c1.96-1.55,3.63-1.97,5.35,0.43c0.42,0.59,2.21,0.99,2.76,0.61c4.21-2.84,8.62-3.32,12.92-0.75c4.87,2.92,6.23,7.86,6.7,13.08
				c0.77,8.41-2.03,15.86-6.57,22.82c-0.82,1.25-1.61,2.51-2.7,4.2c1.25,0.31,2.24,0.76,3.23,0.76c1.52,0.01,3.05-0.2,4.55-0.48
				c5.3-0.98,5.46-1.19,5.24-6.34c-0.6-13.57,3.86-24.84,15.85-32.51c4.04-2.58,8.47-4.24,13.5-4.06c4.02,0.14,7.31,1.56,10,4.41
				c5.35,5.67,5.41,17.64,0.12,23.21c-2.74,2.89-10.6,3.45-13.57,0.83c-0.4-0.35-0.29-1.59-0.02-2.26c1.19-2.95,2.73-5.78,3.75-8.78
				c1.39-4.12-0.94-6.48-5.28-5.35c-1.82,0.47-3.71,1.31-5.12,2.5c-5.73,4.8-9.65,10.75-10.98,18.1
				c-1.8,9.93,6.08,17.58,16.21,15.72c7.39-1.36,13.13-5.71,18.63-10.33c0.69-0.58,0.9-1.94,0.96-2.95
				c0.84-14.42,7.02-25.86,20.12-33c6-3.27,12.67-4.02,18.99-0.41c3.56,2.04,3.01-1.64,4.38-2.6c7.18,2.87,12.11,8.91,7.28,15.73
				c-3.67,5.18-6.48,11.1-8.72,17.03c-1.61,4.25-2.08,9.05-2.25,13.63c-0.12,3.2,2.21,4.39,4.95,2.48c3.48-2.43,6.52-5.58,9.32-8.77
				c1.68-1.91,2.52-4.51,3.8-6.77c0.37-0.65,0.98-1.16,2.14-1.41c0,0.55,0.13,1.14-0.02,1.64c-2.13,7.08-5.44,13.52-11.04,18.62
				c-6.04,5.49-12.42,4.59-16.82-2.24c-0.36-0.56-0.77-1.09-1.44-2.04c-4.3,6.07-10.21,8.56-17.26,7.65
				c-7.51-0.97-10.63-6.59-12.81-13.53c-1.09,1.12-1.79,1.86-2.52,2.59c-5.57,5.58-11.64,10.48-20.02,11
				c-7.73,0.48-14.28-2.08-18.6-8.66c-1.4-2.13-2.46-2.28-4.51-0.86c-4.82,3.35-10.23,4.11-16.04,3.16c-1.07-0.17-2.4,0.5-3.45,1.08
				c-2.72,1.51-5.15,3.79-8.05,4.66c-7.97,2.4-15.15-1.08-18.23-8.87c-1.35-3.41-3.92-3.11-6.53-3.63c-2.57-0.52-3.72,0.75-5.1,2.64
				c-5.52,7.54-12.6,12.39-22.69,11.31c-3.83-0.41-6.43-2.37-7.45-6.06c-0.87-3.13,0.76-6.98,3.85-9.1
				c4.55-3.13,9.76-3.71,15.15-3.66c5.5,0.05,5.77,0.05,7.21-5.02c1.4-4.94,2.21-10.04,3.18-15.09c0.17-0.9-0.12-1.89-0.23-3.2
				c-9.38,2.19-18.1,4.12-22.52,13.72c-8.35,18.12-17.17,36.05-25.81,54.04c-0.53,1.1-1.23,2.12-2.42,2.99
				c0.06-6.07,2.23-11.66,3.83-17.34c1.63-5.77,3.46-11.49,5.2-17.23C233.34,336.09,233.13,336,232.93,335.9z M386.02,323.81
				c-0.02,10.11,4.77,14.48,13.84,12.62c5.17-1.06,8.89-5.51,8.96-10.61c0.03-2.07,0-4.2,0.49-6.2c1.26-5.21,2.71-10.38,4.23-15.52
				c0.89-3.04-0.1-5.23-3.33-5.54c-2.46-0.24-5.12-0.07-7.48,0.63C395.57,301.32,385.05,313.28,386.02,323.81z M301.26,307.2
				c-5.89,6.3-8.54,12.95-7.67,20.83c0.39,3.51,1.96,6.18,5.46,7.59c3.63,1.46,6.75,0.2,9.75-1.66c1.53-0.95,1.82-2.02,0.18-3.23
				c-4.25-3.15-6.03-7.62-6.7-12.56C301.8,314.78,301.63,311.37,301.26,307.2z M321.53,309.12c-0.35-2.04-0.56-4.11-1.1-6.1
				c-0.72-2.6-1.79-2.84-3.82-1.07c-5.13,4.47-7.39,16.55-4.12,22.48c0.44,0.8,1.45,1.89,2.1,1.83c0.85-0.07,1.91-1,2.37-1.83
				C319.61,319.68,321.51,314.69,321.53,309.12z M266.95,327.58c-1.57,0.17-3,0.08-4.25,0.51c-3.02,1.03-6,2.2-8.89,3.54
				c-0.58,0.27-0.88,1.48-0.95,2.29c-0.02,0.28,1,0.85,1.61,0.94C259.06,335.52,264.91,332.23,266.95,327.58z"/>
			<path class="st1" d="M136.09,363.71c-5.83-0.89-8.46-4.16-8.21-9.31c0.82-16.67,4.97-32.56,11.3-48
				c4.23-10.31,8.22-20.71,12.47-31.46c4.11,1.16,8.37,2.97,10.15,7.44c0.76,1.92,0.25,4.72-0.59,6.76
				c-2.92,7.09-6.19,14.05-9.45,21c-0.97,2.06-0.55,2.88,1.7,3.59c13.5,4.26,24.87,0.33,34.85-8.58
				c7.8-6.97,13.38-15.43,16.65-25.29c2.17-6.52,0.6-10.15-6.03-12.75c-10.19-4.01-20.73-4.19-31.22-1.53
				c-15.68,3.97-29.5,11.23-40.48,23.12c-1.07,1.16-1.85,1.51-3.24,0.32c-6.12-5.25-6.44-12.61-0.3-17.66
				c14.08-11.56,30.68-16.91,48.82-18.12c9.22-0.62,18.36-0.1,26.97,3.57c3.05,1.3,6.02,2.96,8.67,4.91
				c5.3,3.88,7.33,9.35,5.97,15.57c-0.88,4.01-2.3,8.1-4.42,11.63c-4.46,7.45-9.12,14.93-16.13,20.44
				c-12.49,9.82-26.22,13.82-41.8,7.4c-1.28-0.53-2.53-1.08-3.23,0.75c-3.79,9.94-9.36,19.27-10.65,30.05
				C137.28,352.86,136.71,358.17,136.09,363.71z"/>
			<path class="st1" d="M264.26,238.37c-0.85,0.67-1.36,1.07-2.16,1.69c3.85,3.83,3.16,8.3,1.59,12.75
				c-1.84,5.22,0.53,8.91,4.46,11.91c2.46,1.88,5.24,3.34,7.73,4.9c-4.52,0.24-8.82-2.61-17-11.61c-0.53,0.85-1.05,1.67-1.8,2.89
				c0.01-4.59,0.95-6,4.59-7.55c1.98-0.84,2.14-3.83,0.56-6.57c-3.71-6.47-7.57-12.87-10.84-19.55c-1.39-2.84-2.28-6.38-1.95-9.46
				c0.48-4.38,1.8-8.84,3.65-12.87c2.2-4.76,6.66-7.52,11.84-8.64c5.06-1.09,10.24-1.67,15.35-2.54c1.79-0.31,3.81-0.42,5.25-1.34
				c1.55-0.98,3.17-2.65,3.61-4.3c0.63-2.35,1.48-2.73,3.77-2.36c5.56,0.9,8.8,4.21,10.76,9.06c0.36,0.89,0.68,1.8,1.21,3.19
				c0.4-1.4,0.65-2.27,1.03-3.56c4.93,5.74,0.44,10.34-0.73,14.67c-1.88-0.2-3.61-0.71-5.23-0.49c-4.04,0.56-7.73,0.1-11.6-1.38
				c-7.23-2.76-14.5-1.24-21.62,0.88c5.19,0.41,10.38-2.02,16.15,0.4c-1.19,2.57-2.34,5.03-3.49,7.49c0.16,0.01,0.33,0.02,0.49,0.03
				c-0.13,1.24,0.1,2.68-0.48,3.68c-0.82,1.42-2.01,2.99-3.44,3.64c-3.19,1.45-3.38,3.89-3.09,6.64c0.31,2.91,1.02,5.42,4.02,7.19
				c2.88,1.7,5.16,4.33,7.81,6.43c0.84,0.67,2,1.17,3.07,1.31c2.06,0.27,4.16,0.23,6.66,0.34c-0.69,1.38-1.11,2.22-1.63,3.25
				c4.47-0.76,8.7-1.47,13.77-2.33c-1.35-1-1.92-1.42-2.58-1.91c0.36-0.58,0.75-1.21,1.18-1.9c-0.42-0.25-0.71-0.56-0.9-0.51
				c-1.54,0.4-3.1,0.77-4.57,1.34c-3.83,1.48-7.08,0.52-8.17-2.2c4.05-1.42,8.11-2.85,12.17-4.28c-0.01-0.28-0.02-0.56-0.04-0.85
				c-1.59-0.27-3.19-0.54-5.08-0.86c0.05-0.56,0.11-1.37,0.19-2.36c2.41,0.79,4.57,1.5,6.04,1.99c1.72,2.38,3.12,4.32,4.7,6.49
				c-3.36,2.73-2.16,6.19-1.33,9.71c0.68,2.89,1.3,5.84,1.4,8.79c0.19,5.26-5.66,10.47-11.04,10.02c-0.92-0.08-1.85-0.74-2.65-1.3
				c-5.03-3.58-10.13-6.72-16.48-8.06c-3.43-0.72-6.72-3.28-9.37-5.73c-1.41-1.3-1.88-4.17-1.79-6.29c0.2-4.55,1.17-9.07,1.54-13.62
				c0.18-2.14-0.02-4.38-0.51-6.47c-0.74-3.11-3.33-4.9-6.57-4.61c-1.07,0.1-2.45,0.95-2.99,1.86c-2.03,3.38-1.38,7.12,1.6,10.43
				C262.13,236.78,263.17,237.46,264.26,238.37z"/>
			<path class="st1" d="M399.97,413.77c1.04,3.22-0.49,4.83-2.26,6.45c-2.94,2.69-5.98,5.32-8.64,8.25
				c-4.31,4.75-11.5,4.57-15.11-0.83c-1.63-2.44-3.65-3.39-6.39-3.02c-6.13,0.81-12.34,1.3-17.3,5.72c-1.12,1-3.11,1.34-4.74,1.48
				c-1.77,0.16-2.6,0.78-3.35,2.37c-0.79,1.66-2.01,3.53-3.57,4.36c-3.14,1.67-5.13,4.1-6.69,7.07c-0.79,1.5-1.52,3.04-2.43,4.47
				c-2.14,3.37-2.31,6.63-0.78,10.44c2.5,6.21-0.03,11.6-5.94,14c-3.73,1.52-7.32,0.41-9.64-2.82c-3.35-4.68-0.9-15.95,7.52-15.87
				c2.35,0.02,4.1-1.08,5.01-3.24c2.78-6.62,5.52-13.26,8.3-19.88c0.73-1.74-0.05-2.25-1.72-2.52c-7.74-1.25-15.46-2.6-23.18-3.92
				c-0.37-0.06-0.74-0.18-1.14-0.77c2.05-0.19,4.09-0.48,6.14-0.56c6.72-0.29,13.44-0.64,20.16-0.69c2.42-0.02,3.78-0.79,4.61-2.92
				c2.47-6.31,5-12.6,7.51-18.89c0.54-1.36,1.05-2.72,1.57-4.08c0.26,0.06,0.51,0.11,0.77,0.17c-1.15,8.22-2.31,16.44-3.52,25.11
				c3.92,0,7.66,0.17,11.38-0.04c4.37-0.24,8.76-0.59,13.05-1.36c1.54-0.28,3.17-1.68,4.15-3c4.45-6,9.59-6.53,15.04-1.33
				c3.26,3.11,4.31,3.15,7.58,0C397.56,416.73,398.57,415.38,399.97,413.77z M319.51,473.36c3.81,0.06,7.46-2.84,8.3-6.6
				c0.84-3.78-1.42-8.46-4.77-9.72c-0.61-0.23-1.43-0.27-2.04-0.06c-3.95,1.39-6.84,3.86-7.79,8
				C312.24,469.18,315.39,473.29,319.51,473.36z M381.84,416.04c-4.05,0.02-7.88,3.47-7.97,7.19c-0.1,3.66,3.85,7.2,7.95,7.14
				c4.31-0.07,7.93-3.34,7.87-7.13C389.62,419.39,385.94,416.02,381.84,416.04z"/>
			<path class="st1" d="M232.76,270.62c3.81-0.05,6.45,2.36,6.5,5.94c0.06,4.1-3.44,7.65-7.59,7.72c-3.7,0.06-5.72-2.23-5.7-6.48
				C226,273.57,228.74,270.66,232.76,270.62z"/>
			<path class="st1" d="M433.11,410.09c0.05-3.46,2.7-6.15,6.05-6.16c3.26-0.01,6.28,3.08,6.24,6.38c-0.04,3.46-2.62,5.83-6.32,5.8
				C435.36,416.08,433.05,413.76,433.11,410.09z"/>
			<path class="st1" d="M319.25,523.83c-3.5,0.03-6.31-2.62-6.29-5.91c0.03-3.6,2.68-6.14,6.4-6.11c3.38,0.03,6.17,2.78,6.17,6.08
				C325.54,521.12,322.7,523.8,319.25,523.83z"/>
			<path class="st1" d="M168.83,467.23c-0.47,3.63-2.39,5.07-4.79,6.22c-0.78,0.37-1.42,1.1-2,1.77c-1.46,1.7-2.59,3.8-4.33,5.13
				c-2.62,1.99-8.55-1-8.78-4.24c-0.04-0.54,0.54-1.23,1.01-1.67c4.11-3.85,8.3-7.62,12.38-11.49c1.12-1.06,1.99-1.26,3,0
				C166.6,464.52,167.89,466.08,168.83,467.23z M154.03,479.59c2.77,0.02,6.61-3.44,6.22-5.25c-0.29-1.32-1.33-2.6-2.36-3.58
				c-0.26-0.25-1.85,0.62-2.66,1.2c-0.97,0.69-1.84,1.57-2.61,2.48c-0.65,0.76-1.74,2.14-1.5,2.46
				C151.99,478.11,153.33,478.98,154.03,479.59z M167.03,466.67c-0.57-0.56-2.3-2.5-2.44-2.39c-2.03,1.49-3.84,3.26-5.7,4.96
				c1.19,0.91,2.27,2.36,3.6,2.62C164.47,472.24,167.06,469.4,167.03,466.67z"/>
			<path class="st1" d="M102.59,388.78c6.5-1.46,12.55-2.8,18.59-4.18c1.91-0.44,2.43,0.28,3.04,2.12c2.02,6.13-2.37,8.49-7.36,7.56
				c-0.65-0.12-1.43,0.21-2.09,0.47c-2.01,0.8-3.92,1.96-6,2.45c-2.37,0.56-4.21-0.59-4.93-2.93
				C103.32,392.59,103.05,390.84,102.59,388.78z M108.46,395.64c0.93-0.23,2.38-0.4,3.65-0.95c2.11-0.91,2.39-2.56,1.84-4.68
				c-0.66-2.51-2.24-1.26-3.57-1.09c-1.1,0.14-2.22,0.29-3.26,0.65c-1.16,0.4-3.24-0.05-2.84,2.18
				C104.65,393.76,105.33,395.65,108.46,395.64z M114.95,387.9c0.44,4.55,3.42,6.32,6.75,4.03c1.02-0.7,1.5-2.81,1.42-4.24
				c-0.1-2-1.83-1.21-3.06-0.95C118.41,387.1,116.76,387.49,114.95,387.9z"/>
			<path class="st1" d="M127.91,450.09c1.07-0.83,2.11-1.71,3.22-2.47c4.08-2.78,8.23-5.46,12.24-8.32
				c1.44-1.03,2.25-0.77,3.25,0.48c3.58,4.45,2.87,7.87-2.13,9.87c-0.55,0.22-1.34,0.56-1.73,0.34c-2.75-1.53-3.68,0.54-4.98,2.15
				c-1.4,1.74-2.99,3.34-4.49,5.01c-0.36-0.31-0.71-0.62-1.07-0.93c1.87-2.23,3.81-4.39,5.55-6.71c0.53-0.7,0.5-1.81,0.73-2.73
				c-1.04,0.07-2.25-0.18-3.09,0.26c-1.77,0.94-3.33,2.26-5.02,3.35c-0.56,0.36-1.29,0.48-1.95,0.71
				C128.26,450.77,128.08,450.43,127.91,450.09z M147.84,443.65c-0.93-0.98-2.43-2.94-2.7-2.8c-2.11,1.19-3.99,2.77-5.93,4.23
				c1.2,0.99,2.26,2.53,3.62,2.85C144.85,448.4,147.31,445.96,147.84,443.65z"/>
			<path class="st1" d="M382.09,500c-4.16-5.54-8.54-10.92-12.08-16.88c0.34-0.25,0.67-0.5,1.01-0.75c1.36,1.73,2.91,3.36,4.04,5.23
				c1.4,2.3,2.64,1.37,4.16,0.26c1.47-1.08,3.33-1.78,1.38-4.08c-1.45-1.71-2.53-3.71-3.77-5.58c0.41-0.26,0.82-0.51,1.23-0.77
				c4.15,5.6,8.31,11.2,12.46,16.79c-0.29,0.27-0.58,0.54-0.87,0.81c-0.6-0.47-1.3-0.86-1.78-1.43c-0.97-1.15-1.79-2.41-2.71-3.61
				c-2.45-3.19-2.35-3.03-5.76-0.87c-2.03,1.29-1.65,2.27-0.47,3.77c1.57,1.99,2.97,4.1,4.45,6.15
				C382.96,499.37,382.53,499.68,382.09,500z"/>
			<path class="st1" d="M414.38,471.82c-1.51,1.58-2.66,3.5-4.37,4.31c-1.14,0.54-3.46-0.03-4.57-0.92
				c-3.46-2.76-6.64-5.85-9.83-8.91c-2.04-1.97-1.72-3.68,0.9-6.38c2.18-2.24,3.92-2.46,6.03-0.59c3.3,2.95,6.58,5.93,9.76,9
				C413.1,469.1,413.49,470.28,414.38,471.82z M413.36,472.99c-0.31-0.37-0.62-0.74-0.92-1.12c-0.3-0.6-0.47-1.35-0.93-1.79
				c-3.42-3.23-6.88-6.41-10.37-9.56c-1.6-1.44-2.95-0.64-4.2,0.62c-1.28,1.3-1.37,2.61,0,3.88c3.37,3.14,6.72,6.3,10.2,9.31
				c0.6,0.52,1.91,0.65,2.74,0.42C411.11,474.42,412.21,473.6,413.36,472.99z"/>
			<path class="st1" d="M208.65,517.71c0.27-2.26,0.53-4.51,0.82-6.77c0.1-0.78,0.5-1.58,0.4-2.33c-0.11-0.83-0.65-1.61-1-2.41
				c-0.73,0.44-1.74,0.71-2.12,1.34c-0.93,1.53-1.5,3.25-2.33,4.84c-0.45,0.87-1.13,1.63-1.71,2.45c-0.29-0.14-0.59-0.28-0.88-0.41
				c0.26-0.84,0.42-1.72,0.79-2.51c1.95-4.25,3.88-8.51,5.99-12.69c0.64-1.28,2.06-3.38,2.7-3.25c2.48,0.54,5.27,1.23,6.05,4.27
				c0.59,2.31-1.07,5.92-3.5,6.6c-2.19,0.61-2.44,1.88-2.62,3.66c-0.24,2.49-0.73,4.95-1.12,7.42
				C209.63,517.85,209.14,517.78,208.65,517.71z M216.47,500.66c-1.31-1.13-2.24-2.34-3.47-2.81c-0.55-0.21-1.83,0.93-2.53,1.69
				c-0.59,0.63-0.99,1.56-1.14,2.41c-0.17,1.01-0.18,2.91,0.09,2.97c1.37,0.32,3.19,0.68,4.21,0.04
				C214.82,504.21,215.35,502.46,216.47,500.66z"/>
			<path class="st1" d="M112.29,419.83c6.5-1.5,12.99-3.03,19.51-4.45c0.57-0.12,1.64,0.37,1.89,0.87c0.27,0.53,0.09,1.75-0.34,2.05
				c-5.38,3.71-10.84,7.31-16.3,10.91c-0.15,0.1-0.53-0.13-1.8-0.47c1.79-1.31,2.98-2.34,4.33-3.11c1.6-0.91,2.04-1.85,1.23-3.62
				c-0.81-1.79-1.91-1.99-3.63-1.58c-1.57,0.37-3.2,0.5-4.8,0.73C112.36,420.71,112.32,420.27,112.29,419.83z M131.1,417.97
				c-0.12-0.24-0.24-0.48-0.36-0.73c-2.23,0.53-4.45,1.1-6.69,1.6c-3.59,0.8-3.82,1.51-1.14,4.38
				C125.62,421.48,128.36,419.73,131.1,417.97z"/>
			<path class="st1" d="M290.48,225.03c0.86-0.73,1.67-1.41,3.19-2.69c-2.76,0.16-4.77,0.28-7.28,0.42
				c4.11-3.7,10.31-4.7,15.09-2.81C298.16,225.55,296.93,228.2,290.48,225.03z"/>
			<path class="st1" d="M430.2,451.62c-0.86-0.34-1.79-0.56-2.57-1.03c-4.65-2.83-9.22-5.77-13.91-8.54
				c-1.64-0.97-1.65-1.8-0.73-3.32c3.04-5.02,5.86-5.68,10.21-2.33c2.41,1.86,2.98,4.08,1.3,6.49c-1.58,2.27-0.92,3.42,1.34,4.54
				c1.74,0.86,3.29,2.09,4.92,3.16C430.58,450.92,430.39,451.27,430.2,451.62z M423.94,440.02c-0.6-0.62-1.46-2-2.72-2.65
				c-1.39-0.72-3.35-1.39-4.69-0.96c-2.7,0.86-2.77,3.49-0.43,4.96c1.02,0.64,2.05,1.28,3.07,1.92
				C421.88,444.99,423.64,444.11,423.94,440.02z"/>
			<path class="st1" d="M352.21,512.82c0.66,0.23,1.33,0.65,1.99,0.63c1.21-0.03,2.72,0.05,3.51-0.61c0.64-0.52,0.74-2.14,0.48-3.13
				c-0.83-3.28-3.55-4.34-6.64-4.8c-3.08-0.46-5.29-1.96-6.09-5.06c-0.52-2.01,0.47-3.53,2.23-4.01c1.78-0.48,3.78-0.22,5.68-0.2
				c0.11,0,0.22,0.8,0.35,1.31c-0.52,0.08-0.92,0.26-1.07,0.15c-1.99-1.63-4-1.38-5.15,0.67c-1.26,2.25,0.6,3.72,2.41,4.72
				c1.02,0.57,2.31,0.74,3.5,0.96c3.7,0.68,5.98,2.81,6.88,6.34c0.68,2.66-0.73,4.23-3.12,4.99
				C355.21,515.4,353.11,515.82,352.21,512.82z"/>
			<path class="st1" d="M192.88,486.45c-2.99-1.33-5.81-4.83-8.7,0.19c-1.33,2.3-1.11,3.78,0.86,5.17
				c-1.75,0.17-3.58-0.13-4.77,0.58c-1.28,0.76-2.01,2.43-2.89,3.76c-0.78,1.2-0.72,1.24,3.58,6.02c-0.17,0.22-0.33,0.44-0.5,0.67
				c-1.64-1.34-3.82-2.41-4.74-4.13c-0.61-1.14,0.25-3.39,1.08-4.79c0.92-1.54,2.58-2.65,3.88-3.99c0.39-0.4,0.73-0.92,0.91-1.44
				C184,481.29,187.61,480.5,192.88,486.45z"/>
			<path class="st1" d="M173.23,406.01c-3.76,2.13-4.97,1.55-4.99-2.39c-0.01-3.05,0-6.09,0-9.07c5.45-0.63,6.2-0.13,6.03,4.5
				c-0.09,2.36-0.73,4.69-1.12,7.04c0.07-2.97,0.36-5.95,0.09-8.89c-0.09-0.93-1.68-1.73-2.58-2.59c-0.45,0.84-1.18,1.64-1.29,2.52
				c-0.21,1.66-0.07,3.36-0.08,5.05C169.28,406.12,169.28,406.12,173.23,406.01z"/>
			<path class="st1" d="M189.67,394.4c5.86-0.26,6.14-0.02,6.14,5.01c0,1.48,0.06,2.97-0.07,4.45c-0.22,2.52-1.97,3.25-4.26,3.19
				c-2.54-0.07-1.74-2-1.78-3.31C189.6,400.69,189.67,397.64,189.67,394.4z M190.63,399.89c0.01,0,0.03,0,0.04,0
				c0,1.39-0.18,2.81,0.07,4.15c0.14,0.73,1.01,1.85,1.58,1.86c0.73,0.02,2.08-0.84,2.13-1.4c0.24-2.65,0.31-5.35,0.01-7.99
				c-0.08-0.73-1.68-1.29-2.59-1.93c-0.42,0.78-1.01,1.52-1.2,2.35C190.47,397.88,190.63,398.9,190.63,399.89z"/>
			<path class="st1" d="M222.14,429.83c0-3.37,0.1-6.69-0.09-10c-0.04-0.61-1.52-1.77-1.88-1.62c-0.84,0.35-1.92,1.3-1.98,2.07
				c-0.22,3.04-0.09,6.1-0.48,9.82c-0.19-0.48-0.52-0.96-0.54-1.45c-0.1-3.16-0.31-6.34-0.03-9.47c0.06-0.63,1.98-1.44,3.11-1.55
				c0.86-0.09,2.6,0.76,2.62,1.24c0.14,3.53-0.05,7.08-0.19,10.62C222.68,429.64,222.22,429.78,222.14,429.83z"/>
			<path class="st1" d="M214.06,429.88c0-2.89,0.04-5.82-0.02-8.75c-0.03-1.32,0.24-3.02-1.96-3c-2.24,0.02-2.16,1.67-2.17,3.19
				c-0.01,2.72,0,5.43-0.16,8.16c-1.16-3.54-1.28-7.19-0.24-10.78c0.47-1.63,4.22-1.7,5.23-0.29
				C215.92,420.07,215.39,428.17,214.06,429.88z"/>
			<path class="st1" d="M201.53,394.47c-2.68-0.24-2.9,1.37-2.84,3.26c0.05,1.58,0.17,3.18,0,4.74c-0.26,2.47,0.39,4.03,4.04,3.65
				c-3.73,1.46-5.46,0.27-5.44-2.9c0.01-1.94,0.01-3.87,0-5.81C197.28,394.9,198.08,394.3,201.53,394.47z"/>
			<path class="st1" d="M183.43,406.18c1.18-0.37,2.37-0.74,3.55-1.11c-0.47-1.39-0.81-2.84-1.45-4.15
				c-0.32-0.66-1.49-0.96-1.71-1.61c-0.46-1.38-0.55-2.87-0.8-4.31c1.47-0.24,2.95-0.47,4.42-0.71c0,0.2,0.01,0.39,0.01,0.59
				c-1.2,0.27-2.4,0.54-3.61,0.81c0.63,1.32,1.21,2.68,1.91,3.96c0.73,1.33,1.93,2.52,2.27,3.92c0.21,0.84-0.58,2.38-1.38,2.87
				c-0.83,0.5-2.23,0.11-3.39,0.11C183.33,406.43,183.38,406.31,183.43,406.18z"/>
			<path class="st1" d="M265.63,236.11c-2.23-0.92-3.1-1.83-1.55-4.02c2.53-3.59,1.7-5.59-2.23-6.18c2.45-1.07,5.25,0.64,4.96,3.12
				C266.55,231.26,266.08,233.49,265.63,236.11z"/>
			<path class="st1" d="M201.42,429.11c-0.61-1.75,0.06-3.55,1.98-4.96c0.41-0.3,1.01-0.51,1.19-0.9c0.59-1.27,1.51-2.69,1.31-3.89
				c-0.11-0.65-2.25-0.97-4.17-1.71c1.84,0.18,3.72-0.15,4.48,0.59c0.73,0.72,0.45,2.57,0.34,3.9c-0.05,0.59-0.73,1.15-1.15,1.7
				C204.07,425.6,202.73,427.37,201.42,429.11z"/>
			<path class="st1" d="M181.43,406.43c-3.86,0.93-5.24,0.07-5.34-2.77c-0.08-2.15-0.01-4.31-0.03-6.46
				c-0.02-2.77,1.62-3.3,4.09-2.85c-3.04,0.67-3.79,2.09-2.7,4.82c0.2,0.51,0.35,1.2,0.16,1.67
				C176.11,404.57,176.72,405.69,181.43,406.43z"/>
			<path class="st1" d="M306.64,226c-2.47-3.46-2.21-4.83,1.67-7.31C307.7,221.35,307.21,223.48,306.64,226z"/>
			<path class="st1" d="M225.28,429.59c0-3.49-0.5-7.08,0.17-10.44c0.49-2.47,3-1.8,5.16-0.96c-1.61,0.24-3.5,0.01-4.11,0.76
				c-0.67,0.83-0.14,2.57-0.19,3.91c-0.08,2.22-0.2,4.45-0.31,6.67C225.77,429.54,225.52,429.56,225.28,429.59z"/>
			<path d="M415.75,373.72c1.17-0.15,2.33-0.3,3.5-0.46c-11.33,4.61-23.58,5.43-35.37,8.16c0.05,0.31,0.1,0.62,0.14,0.93
				c4.69-0.67,9.4-1.21,14.06-2.03c4.9-0.87,9.77-1.96,14.63-3.06c4.76-1.08,9.48-2.29,14.22-3.45c4.72-1.15,9.44-2.29,14.15-3.43
				c0.09,0.23,0.18,0.45,0.26,0.68c-1.21,0.49-2.39,1.1-3.63,1.47c-17.83,5.3-35.82,10.02-54.44,11.8
				c-5.12,0.49-10.38,0.17-15.51-0.36c-4.53-0.46-8.62-2.38-11.49-6.1c-2.3-2.98-2.04-4.24,1.64-4.93c5.36-1,10.83-1.5,16.27-2.1
				c2.24-0.25,4.58,0.4,6.55-1.46c0.68-0.64,2.12-0.63,3.22-0.72c11.52-0.97,22.67-3.66,33.77-6.66c1.83-0.49,3.86-0.71,5.73-0.48
				c1.45,0.18,3.52,0.94,3.99,2c0.55,1.26,0.22,3.58-0.7,4.6c-1.39,1.53-3.54,2.5-5.52,3.41c-1.73,0.8-3.65,1.18-5.49,1.75
				C415.74,373.43,415.74,373.57,415.75,373.72z"/>
			<path d="M350.83,370.43c3.87-6.58,10.55-7.76,17.47-8.49c7.49-0.79,14.98-1.67,22.47-2.48c0.56-0.06,1.14,0.04,2.65,0.11
				c-1.53,0.75-2.27,1.12-3.11,1.53c0.21,0.19,0.42,0.52,0.58,0.5c4.03-0.56,8.11-0.91,12.06-1.79
				c11.62-2.59,23.23-5.26,34.01-10.47c0.55-0.26,1.14-0.66,1.69-0.63c0.86,0.05,1.69,0.41,2.54,0.64
				c-0.43,0.85-0.64,2.17-1.32,2.46c-3.64,1.54-7.36,2.91-11.12,4.16c-7.1,2.35-14.13,5.13-21.42,6.71
				c-7.11,1.53-14.5,1.95-21.79,2.56c-8.61,0.72-17.24,1.18-25.87,1.65c-3.27,0.18-5.66,1.55-7.1,4.35
				c-0.95,1.84-2.17,1.98-3.99,1.3c-1.7-0.64-3.51-1.03-5.31-1.36c-6.45-1.16-11.74,0.62-15.24,6.22c-1.22,1.96-2.46,2.61-4.69,1.66
				c-4-1.7-7.99-2.09-11.98,0.26c-1.04,0.61-2.45,0.64-3.77,0.95c0.24-5.6,3.39-10.01,8.18-11.53c3.87-1.22,7.76-2.48,11.73-3.26
				c2.07-0.41,4.35,0.18,6.53,0.34c0.69,0.05,1.38,0.33,2.06,0.28C344.24,365.49,344.59,365.58,350.83,370.43z"/>
			<path d="M244.98,486.86c4.14-26.21,10.06-51.97,19.96-76.72c0.43,0.11,0.86,0.22,1.29,0.32c-6.66,25.57-13.32,51.13-19.98,76.7
				C245.84,487.06,245.41,486.96,244.98,486.86z"/>
			<path d="M286.74,424.42c-4.63,22.26-9.26,44.52-13.89,66.79C275.14,468.49,278.18,445.93,286.74,424.42z"/>
			<path d="M257.12,382.45c0.29-0.05,0.59-0.16,0.87-0.15c5.04,0.22,10.07,0.44,15.25,0.68c-0.2,2.48-1.08,3.88-3.81,3.34
				c-3.37-0.66-6.75-1.23-10.1-1.95c-0.89-0.19-1.67-0.82-2.5-1.25C256.92,382.89,257.02,382.67,257.12,382.45z"/>
			<path d="M261.83,516.16c-1.96,1.41-3.18,2.96-4.29,2.9c-1.13-0.07-2.79-1.56-3.11-2.72c-0.53-1.93,1.1-3.36,2.97-3.16
				C258.68,513.32,259.8,514.73,261.83,516.16z"/>
			<path d="M295.65,381.49c-1.25,0.85-2.41,2.21-3.76,2.43c-2.06,0.33-3.39-1.47-2.97-3.15c0.28-1.12,2.13-2.37,3.43-2.58
				c0.95-0.15,2.17,1.31,3.27,2.06C295.64,380.66,295.64,381.07,295.65,381.49z"/>
			<path d="M255.08,511.81c-1.9,2.59-3.34,5.21-0.32,8.2c-0.55,0.1-1.11,0.2-1.66,0.3c-0.69-1.49-2.07-3.05-1.9-4.44
				c0.2-1.62,1.76-3.08,2.72-4.6C254.31,511.45,254.7,511.63,255.08,511.81z"/>
			<path d="M288.21,385.68c-0.69-1.68-1.95-3.38-1.9-5.04c0.04-1.52,1.49-3,2.32-4.5c0.32,0.17,0.65,0.34,0.97,0.51
				c-0.69,1.42-1.87,2.82-1.92,4.26c-0.04,1.37,1.1,2.78,1.72,4.18C289,385.29,288.61,385.48,288.21,385.68z"/>
			<path d="M290.01,359.07c0.73-3.75,3.19-5.13,5.35-3.35C293.62,356.81,291.83,357.93,290.01,359.07z"/>
			<path d="M386.02,323.81c-0.97-10.53,9.56-22.5,16.72-24.62c2.35-0.7,5.02-0.87,7.48-0.63c3.23,0.32,4.22,2.51,3.33,5.54
				c-1.52,5.14-2.97,10.31-4.23,15.52c-0.48,1.99-0.45,4.13-0.49,6.2c-0.08,5.1-3.79,9.55-8.96,10.61
				C390.79,338.29,386,333.93,386.02,323.81z"/>
			<path d="M301.26,307.2c0.37,4.17,0.54,7.59,1.01,10.96c0.68,4.94,2.45,9.41,6.7,12.56c1.64,1.21,1.35,2.28-0.18,3.23
				c-3,1.86-6.12,3.12-9.75,1.66c-3.49-1.41-5.07-4.08-5.46-7.59C292.72,320.15,295.37,313.5,301.26,307.2z"/>
			<path d="M321.53,309.12c-0.02,5.58-1.92,10.56-4.57,15.3c-0.46,0.83-1.51,1.75-2.37,1.83c-0.65,0.06-1.66-1.03-2.1-1.83
				c-3.27-5.92-1.01-18.01,4.12-22.48c2.02-1.76,3.1-1.53,3.82,1.07C320.97,305,321.17,307.08,321.53,309.12z"/>
			<path d="M266.95,327.58c-2.04,4.66-7.89,7.94-12.48,7.27c-0.6-0.09-1.63-0.66-1.61-0.94c0.07-0.81,0.36-2.02,0.95-2.29
				c2.89-1.33,5.87-2.51,8.89-3.54C263.95,327.66,265.38,327.74,266.95,327.58z"/>
			<path d="M319.51,473.36c-4.12-0.07-7.26-4.18-6.3-8.38c0.95-4.14,3.84-6.61,7.79-8c0.6-0.21,1.43-0.16,2.04,0.06
				c3.35,1.26,5.61,5.94,4.77,9.72C326.97,470.52,323.31,473.42,319.51,473.36z"/>
			<path d="M381.84,416.04c4.1-0.02,7.78,3.35,7.84,7.2c0.06,3.79-3.55,7.06-7.87,7.13c-4.1,0.06-8.04-3.48-7.95-7.14
				C373.96,419.51,377.79,416.06,381.84,416.04z"/>
			<path d="M154.03,479.59c-0.7-0.6-2.04-1.48-2.92-2.68c-0.24-0.32,0.86-1.7,1.5-2.46c0.77-0.91,1.64-1.78,2.61-2.48
				c0.81-0.58,2.4-1.45,2.66-1.2c1.03,0.97,2.07,2.25,2.36,3.58C160.64,476.15,156.8,479.61,154.03,479.59z"/>
			<path d="M167.03,466.67c0.03,2.74-2.56,5.57-4.54,5.19c-1.32-0.26-2.41-1.7-3.6-2.62c1.86-1.7,3.67-3.47,5.7-4.96
				C164.74,464.17,166.47,466.1,167.03,466.67z"/>
			<path d="M108.46,395.64c-3.13,0.01-3.81-1.88-4.18-3.89c-0.4-2.23,1.67-1.78,2.84-2.18c1.04-0.36,2.16-0.51,3.26-0.65
				c1.33-0.17,2.91-1.41,3.57,1.09c0.56,2.13,0.28,3.77-1.84,4.68C110.83,395.24,109.39,395.41,108.46,395.64z"/>
			<path d="M114.95,387.9c1.81-0.41,3.46-0.8,5.12-1.16c1.22-0.26,2.95-1.04,3.06,0.95c0.07,1.43-0.4,3.54-1.42,4.24
				C118.37,394.22,115.39,392.45,114.95,387.9z"/>
			<path d="M147.84,443.65c-0.53,2.31-2.99,4.76-5.01,4.29c-1.36-0.32-2.42-1.86-3.62-2.85c1.95-1.46,3.82-3.04,5.93-4.23
				C145.41,440.7,146.92,442.66,147.84,443.65z"/>
			<path d="M413.36,472.99c-1.15,0.61-2.25,1.43-3.48,1.77c-0.83,0.23-2.14,0.09-2.74-0.42c-3.48-3.01-6.83-6.18-10.2-9.31
				c-1.36-1.27-1.27-2.58,0-3.88c1.24-1.26,2.6-2.06,4.2-0.62c3.49,3.15,6.95,6.34,10.37,9.56c0.47,0.44,0.63,1.18,0.93,1.79
				C412.74,472.25,413.05,472.62,413.36,472.99z"/>
			<path d="M216.47,500.66c-1.12,1.8-1.65,3.55-2.84,4.29c-1.02,0.64-2.84,0.28-4.21-0.04c-0.27-0.06-0.26-1.96-0.09-2.97
				c0.15-0.85,0.55-1.77,1.14-2.41c0.7-0.75,1.98-1.9,2.53-1.69C214.22,498.32,215.15,499.53,216.47,500.66z"/>
			<path d="M131.1,417.97c-2.74,1.76-5.48,3.51-8.19,5.25c-2.68-2.87-2.45-3.58,1.14-4.38c2.24-0.5,4.46-1.06,6.69-1.6
				C130.87,417.49,130.98,417.73,131.1,417.97z"/>
			<path d="M423.94,440.02c-0.3,4.1-2.06,4.97-4.77,3.26c-1.02-0.64-2.05-1.28-3.07-1.92c-2.34-1.47-2.26-4.09,0.43-4.96
				c1.34-0.43,3.3,0.25,4.69,0.96C422.48,438.01,423.34,439.4,423.94,440.02z"/>
			<path d="M173.23,406.01c-3.95,0.12-3.95,0.12-3.94-3.83c0.01-1.68-0.14-3.39,0.08-5.05c0.11-0.88,0.84-1.68,1.29-2.52
				c0.9,0.86,2.49,1.66,2.58,2.59c0.27,2.94-0.02,5.92-0.09,8.89C173.15,406.09,173.23,406.01,173.23,406.01z"/>
			<path d="M190.63,399.89c0-0.99-0.16-2.01,0.05-2.96c0.18-0.83,0.78-1.57,1.2-2.35c0.9,0.64,2.5,1.2,2.59,1.93
				c0.31,2.64,0.23,5.34-0.01,7.99c-0.05,0.57-1.4,1.42-2.13,1.4c-0.57-0.01-1.44-1.13-1.58-1.86c-0.26-1.34-0.07-2.76-0.07-4.15
				C190.66,399.89,190.65,399.89,190.63,399.89z"/>
		</g>
	</g>
</g>
<g id="Camada_2" class="st2">
	<path class="st3" d="M316.03,737.64c-1.62,1.13-3.15,2.42-4.87,3.38c-9.94,5.51-19.4,0.15-19.89-10.96
		c-0.44-9.76,2.87-18.59,6.43-27.39c1.93-4.78,4.13-9.45,6.19-14.14c7.42,1.45,12.91,8.18,7.89,15.45
		c-3.39,4.91-6.06,10.39-8.32,15.91c-1.59,3.89-2.42,8.22-2.72,12.42c-0.3,4.18,1.98,5.6,6.08,4.24c5.57-1.83,9.83-5.65,12.22-10.66
		c3.25-6.81,5.62-14.02,8.29-21.09c2.49-6.6,4.88-13.25,7.42-20.19c4.21,1.13,7.44,3.46,9.59,6.9c1.18,1.89,2.1,1.77,3.89,1.11
		c3.01-1.11,6.11-2.43,9.25-2.68c7.41-0.59,10.92,2.51,11.85,9.78c0.79,6.18-0.72,12.06-2.69,17.85c-0.58,1.7-1.31,3.34-1.99,5
		c-1.74,4.23-1.42,4.65,3.99,4.68c0-1.04-0.01-2.09,0-3.14c0.22-14,6.64-24.9,17.6-33.55c1.96-1.55,3.63-1.97,5.35,0.43
		c0.42,0.59,2.21,0.99,2.76,0.61c4.21-2.84,8.62-3.32,12.92-0.75c4.87,2.92,6.23,7.86,6.7,13.08c0.77,8.41-2.03,15.86-6.57,22.82
		c-0.82,1.25-1.61,2.51-2.7,4.2c1.25,0.31,2.24,0.76,3.23,0.76c1.52,0.01,3.05-0.2,4.55-0.48c5.3-0.98,5.46-1.19,5.24-6.34
		c-0.6-13.57,3.86-24.84,15.85-32.51c4.04-2.58,8.47-4.24,13.5-4.06c4.02,0.14,7.31,1.56,10,4.41c5.35,5.67,5.41,17.64,0.12,23.21
		c-2.74,2.89-10.6,3.45-13.57,0.83c-0.4-0.35-0.29-1.59-0.02-2.26c1.19-2.95,2.73-5.78,3.75-8.78c1.39-4.12-0.94-6.48-5.28-5.35
		c-1.82,0.47-3.71,1.31-5.12,2.5c-5.73,4.8-9.65,10.75-10.98,18.1c-1.8,9.93,6.08,17.58,16.21,15.72
		c7.39-1.36,13.13-5.71,18.63-10.33c0.69-0.58,0.9-1.94,0.96-2.95c0.84-14.42,7.02-25.86,20.12-33c6-3.27,12.67-4.02,18.99-0.41
		c3.56,2.04,3.01-1.64,4.38-2.6c7.18,2.87,12.11,8.91,7.28,15.73c-3.67,5.18-6.48,11.1-8.72,17.03c-1.61,4.25-2.08,9.05-2.25,13.63
		c-0.12,3.2,2.21,4.39,4.95,2.48c3.48-2.43,6.52-5.58,9.32-8.77c1.68-1.91,2.52-4.51,3.8-6.77c0.37-0.65,0.98-1.16,2.14-1.41
		c0,0.55,0.13,1.14-0.02,1.64c-2.13,7.08-5.45,13.52-11.04,18.62c-6.04,5.49-12.42,4.59-16.82-2.24c-0.36-0.56-0.77-1.09-1.44-2.04
		c-4.3,6.07-10.21,8.56-17.26,7.65c-7.51-0.97-10.63-6.59-12.81-13.53c-1.09,1.12-1.79,1.86-2.52,2.59
		c-5.57,5.58-11.64,10.48-20.02,11c-7.73,0.48-14.28-2.08-18.6-8.66c-1.4-2.13-2.46-2.28-4.51-0.86
		c-4.82,3.35-10.23,4.11-16.04,3.16c-1.07-0.17-2.4,0.5-3.45,1.08c-2.72,1.51-5.15,3.79-8.05,4.66c-7.97,2.4-15.15-1.08-18.23-8.87
		c-1.35-3.41-3.92-3.11-6.53-3.63c-2.57-0.52-3.72,0.75-5.1,2.64c-5.52,7.54-12.6,12.39-22.69,11.31c-3.83-0.41-6.43-2.37-7.45-6.06
		c-0.87-3.13,0.76-6.98,3.85-9.1c4.55-3.13,9.76-3.71,15.15-3.66c5.5,0.05,5.77,0.05,7.21-5.02c1.4-4.94,2.21-10.04,3.18-15.09
		c0.17-0.9-0.12-1.89-0.23-3.2c-9.38,2.19-18.1,4.12-22.52,13.72c-8.35,18.12-17.17,36.05-25.81,54.04
		c-0.53,1.1-1.23,2.12-2.42,2.99c0.06-6.07,2.23-11.66,3.83-17.34c1.63-5.77,3.46-11.49,5.2-17.23
		C316.44,737.83,316.24,737.73,316.03,737.64z M469.12,725.55c-0.02,10.11,4.77,14.48,13.84,12.62c5.17-1.06,8.89-5.51,8.96-10.61
		c0.03-2.07,0-4.2,0.49-6.2c1.26-5.21,2.71-10.38,4.23-15.52c0.89-3.04-0.1-5.23-3.33-5.54c-2.46-0.24-5.12-0.07-7.48,0.63
		C478.68,703.05,468.15,715.02,469.12,725.55z M384.36,708.93c-5.89,6.3-8.54,12.95-7.67,20.83c0.39,3.51,1.96,6.18,5.46,7.59
		c3.63,1.46,6.75,0.2,9.75-1.66c1.53-0.95,1.82-2.02,0.18-3.23c-4.25-3.15-6.03-7.62-6.7-12.56
		C384.91,716.52,384.74,713.1,384.36,708.93z M404.63,710.85c-0.35-2.04-0.56-4.11-1.1-6.1c-0.72-2.6-1.79-2.84-3.82-1.07
		c-5.13,4.47-7.39,16.55-4.12,22.48c0.44,0.8,1.45,1.89,2.1,1.83c0.85-0.07,1.91-1,2.37-1.83
		C402.71,721.41,404.61,716.43,404.63,710.85z M350.06,729.31c-1.57,0.17-3,0.08-4.25,0.51c-3.02,1.03-6,2.2-8.89,3.54
		c-0.58,0.27-0.88,1.48-0.95,2.29c-0.02,0.28,1,0.85,1.61,0.94C342.17,737.25,348.02,733.97,350.06,729.31z"/>
	<path class="st3" d="M219.19,765.44c-5.83-0.89-8.46-4.16-8.21-9.31c0.82-16.67,4.97-32.56,11.3-48
		c4.23-10.31,8.22-20.71,12.47-31.46c4.11,1.16,8.37,2.97,10.15,7.44c0.76,1.92,0.25,4.72-0.59,6.76c-2.92,7.09-6.19,14.05-9.45,21
		c-0.97,2.06-0.55,2.88,1.7,3.59c13.5,4.26,24.87,0.33,34.85-8.58c7.8-6.97,13.38-15.43,16.65-25.29c2.17-6.52,0.6-10.15-6.03-12.75
		c-10.19-4.01-20.73-4.19-31.22-1.53c-15.68,3.97-29.5,11.23-40.48,23.12c-1.07,1.16-1.85,1.51-3.24,0.32
		c-6.12-5.25-6.44-12.61-0.3-17.66c14.08-11.56,30.68-16.91,48.82-18.12c9.22-0.62,18.36-0.1,26.97,3.57
		c3.05,1.3,6.02,2.96,8.67,4.91c5.3,3.88,7.33,9.35,5.97,15.57c-0.88,4.01-2.3,8.1-4.42,11.63c-4.46,7.45-9.12,14.93-16.13,20.44
		c-12.49,9.82-26.22,13.82-41.8,7.4c-1.28-0.53-2.53-1.08-3.23,0.75c-3.79,9.94-9.36,19.27-10.65,30.05
		C220.38,754.59,219.82,759.91,219.19,765.44z"/>
	<path class="st3" d="M315.87,672.35c3.81-0.05,6.45,2.36,6.5,5.94c0.06,4.1-3.44,7.65-7.59,7.72c-3.7,0.06-5.72-2.23-5.7-6.48
		C309.1,675.3,311.85,672.4,315.87,672.35z"/>
	<text transform="matrix(1 0 0 1 379.7098 772.4882)" class="st3 st4 st5 st6">Barber Shop</text>
	<path class="st3" d="M106.26,724.91c-1.17,0.92-1.87,1.46-2.96,2.32c5.27,5.25,4.33,11.36,2.18,17.46
		c-2.51,7.14,0.73,12.19,6.11,16.31c3.36,2.57,7.18,4.58,10.58,6.71c-6.19,0.32-12.07-3.58-23.28-15.9
		c-0.73,1.17-1.43,2.29-2.47,3.95c0.02-6.28,1.3-8.21,6.28-10.33c2.72-1.16,2.92-5.24,0.77-8.99c-5.08-8.85-10.37-17.63-14.85-26.77
		c-1.91-3.89-3.12-8.74-2.67-12.95c0.65-6,2.46-12.1,5-17.62c3.01-6.52,9.12-10.3,16.22-11.83c6.93-1.5,14.02-2.28,21.02-3.47
		c2.46-0.42,5.22-0.58,7.19-1.83c2.12-1.35,4.34-3.62,4.95-5.89c0.86-3.22,2.02-3.73,5.16-3.22c7.62,1.23,12.04,5.76,14.73,12.4
		c0.5,1.22,0.93,2.46,1.66,4.37c0.55-1.92,0.9-3.11,1.4-4.87c6.76,7.85,0.61,14.15-1,20.09c-2.57-0.27-4.94-0.97-7.15-0.67
		c-5.53,0.77-10.58,0.13-15.88-1.89c-9.9-3.78-19.85-1.69-29.61,1.2c7.1,0.57,14.21-2.77,22.12,0.55c-1.64,3.52-3.2,6.88-4.77,10.25
		c0.22,0.01,0.45,0.03,0.67,0.04c-0.18,1.7,0.14,3.67-0.65,5.04c-1.12,1.94-2.75,4.09-4.71,4.99c-4.36,1.98-4.63,5.32-4.24,9.09
		c0.42,3.98,1.39,7.42,5.5,9.84c3.94,2.32,7.06,5.93,10.69,8.8c1.16,0.91,2.74,1.6,4.2,1.8c2.82,0.37,5.7,0.32,9.11,0.47
		c-0.95,1.89-1.52,3.04-2.23,4.46c6.12-1.03,11.91-2.01,18.86-3.19c-1.84-1.37-2.63-1.94-3.54-2.62c0.5-0.8,1.02-1.65,1.61-2.6
		c-0.57-0.34-0.97-0.76-1.23-0.69c-2.1,0.55-4.24,1.06-6.26,1.84c-5.24,2.03-9.7,0.72-11.18-3.01c5.55-1.95,11.1-3.9,16.66-5.85
		c-0.02-0.39-0.03-0.77-0.05-1.16c-2.18-0.37-4.36-0.74-6.96-1.18c0.06-0.77,0.15-1.88,0.26-3.23c3.3,1.08,6.26,2.06,8.27,2.72
		c2.36,3.26,4.28,5.91,6.43,8.89c-4.6,3.74-2.96,8.47-1.82,13.29c0.93,3.95,1.78,8,1.92,12.03c0.26,7.21-7.75,14.34-15.11,13.72
		c-1.26-0.1-2.54-1.01-3.63-1.78c-6.89-4.9-13.86-9.2-22.57-11.03c-4.69-0.99-9.2-4.49-12.83-7.85c-1.93-1.78-2.58-5.7-2.45-8.61
		c0.27-6.23,1.6-12.41,2.11-18.64c0.24-2.92-0.02-6-0.7-8.86c-1.02-4.25-4.56-6.71-8.99-6.31c-1.47,0.13-3.35,1.31-4.1,2.55
		c-2.79,4.62-1.89,9.75,2.19,14.28C103.35,722.72,104.77,723.66,106.26,724.91z"/>
	<path class="st3" d="M142.17,706.65c1.18-1,2.29-1.93,4.36-3.69c-3.78,0.22-6.53,0.38-9.96,0.58c5.63-5.06,14.12-6.43,20.66-3.85
		C152.68,707.35,150.99,710.98,142.17,706.65z"/>
	<path class="st3" d="M164.28,707.97c-3.38-4.73-3.03-6.61,2.29-10.01C165.74,701.6,165.07,704.51,164.28,707.97z"/>
</g>
</svg>
