<?xml version="1.0" encoding="utf-8"?>
<!-- Generator: Adobe Illustrator 25.2.1, SVG Export Plug-In . SVG Version: 6.00 Build 0)  -->
<svg version="1.1" xmlns="http://www.w3.org/2000/svg" xmlns:xlink="http://www.w3.org/1999/xlink" x="0px" y="0px"
	 viewBox="0 0 1851.76 815.59" style="enable-background:new 0 0 1851.76 815.59;" xml:space="preserve">
<style type="text/css">
	.st0{display:none;}
	.st1{display:inline;fill:#010202;}
	.st2{display:inline;}
	.st3{fill:#FFFFFF;}
</style>
<g id="Camada_1" class="st0">
	<circle class="st1" cx="279.23" cy="337.24" r="190.63"/>
	<g class="st2">
		<g>
			<path class="st3" d="M229.53,344.41c4.73,1.51,9.27,3.18,13.94,4.4c9.48,2.46,19.08,4.15,28.99,3.29
				c2.96-0.26,4.81-1.48,6.17-4.06c2.7-5.12,5.66-10.11,8.46-15.19c2.41-4.36,5.93-5.89,10.91-4.64c5.2,1.3,10.3,2.68,13.48,7.39
				c0.86,1.27,1.25,3.72,2.18,3.89c1.85,0.32,3.98-0.39,5.89-0.98c16.18-5.02,32.8-7.19,49.71-6.88
				c22.89,0.43,44.69-4.26,65.87-12.37c8.22-3.15,6.25-2.93,9.71,3.94c2.91,5.76,6.51,11.19,9.83,16.76
				c0.54,0.91,1.18,1.76,2.04,3.04c-3.28,1.05-6.13,2-9,2.87c-17.81,5.39-35.64,10.73-54.18,13.25c-6.26,0.85-12.54,1.54-18.83,2.06
				c-7.53,0.61-13.98-1.79-19.39-7.01c-4.38-4.23-9.3-7.31-15.94-6.89c-5.73,0.36-8.74,2.63-9.97,8.16
				c-0.25,1.12-0.63,2.22-1.09,3.8c-1.5-1.03-2.64-1.78-3.75-2.58c-6.22-4.48-16.78-2.47-20.63,4.09c-1.46,2.48-2.58,5.19-3.57,7.89
				c-7.58,20.6-14.77,41.32-18.46,62.99c-2.47,14.5-4.9,29.02-6.94,43.58c-0.82,5.88-0.53,11.9-0.82,17.86
				c-0.11,2.17-0.27,4.36-0.69,6.49c-0.62,3.23-2.33,4.77-5.7,4.7c-8.85-0.18-17.31-2.38-25.51-5.49c-2.22-0.85-3.48-2.82-3.41-5.23
				c0.14-4.96,0.03-9.96,0.71-14.86c1.78-12.79,3.57-25.59,6.02-38.27c4.86-25.1,12.69-49.34,23.33-72.7
				c0.21-0.45,0.39-0.92,0.59-1.37c1.06-2.35,0.71-3.53-2.33-3.89c-14.39-1.73-26.15-8.97-37.32-17.36
				C229.7,345.01,229.68,344.77,229.53,344.41z M415.75,347.42c0-0.14-0.01-0.29-0.01-0.43c1.84-0.57,3.76-0.96,5.49-1.75
				c1.97-0.91,4.13-1.87,5.52-3.41c0.92-1.02,1.26-3.34,0.7-4.6c-0.47-1.06-2.54-1.82-3.99-2c-1.87-0.23-3.9-0.02-5.73,0.48
				c-11.1,3-22.25,5.69-33.77,6.66c-1.11,0.09-2.54,0.08-3.22,0.72c-1.97,1.86-4.31,1.21-6.55,1.46c-5.44,0.6-10.91,1.09-16.27,2.1
				c-3.67,0.69-3.93,1.95-1.64,4.93c2.87,3.72,6.96,5.64,11.49,6.1c5.13,0.52,10.4,0.85,15.51,0.36c18.61-1.78,36.6-6.5,54.44-11.8
				c1.25-0.37,2.42-0.97,3.63-1.47c-0.09-0.23-0.18-0.45-0.26-0.68c-4.72,1.14-9.44,2.28-14.15,3.43
				c-4.74,1.15-9.47,2.37-14.22,3.45c-4.86,1.1-9.72,2.19-14.63,3.06c-4.66,0.83-9.37,1.37-14.06,2.03
				c-0.05-0.31-0.1-0.62-0.14-0.93c11.78-2.73,24.03-3.55,35.37-8.16C418.08,347.11,416.91,347.27,415.75,347.42z M350.83,344.13
				c-6.24-4.86-6.6-4.95-14.73-4.36c-0.67,0.05-1.37-0.22-2.06-0.28c-2.18-0.16-4.46-0.75-6.53-0.34
				c-3.98,0.78-7.86,2.04-11.73,3.26c-4.79,1.51-7.93,5.93-8.18,11.53c1.32-0.31,2.73-0.34,3.77-0.95
				c3.99-2.35,7.99-1.96,11.98-0.26c2.23,0.95,3.46,0.3,4.69-1.66c3.5-5.6,8.79-7.38,15.24-6.22c1.8,0.32,3.61,0.72,5.31,1.36
				c1.82,0.69,3.04,0.54,3.99-1.3c1.45-2.8,3.83-4.17,7.1-4.35c8.63-0.46,17.26-0.92,25.87-1.65c7.29-0.61,14.68-1.02,21.79-2.56
				c7.29-1.57,14.31-4.35,21.42-6.71c3.76-1.25,7.48-2.62,11.12-4.16c0.68-0.29,0.89-1.61,1.32-2.46c-0.85-0.23-1.68-0.6-2.54-0.64
				c-0.55-0.03-1.15,0.37-1.69,0.63c-10.78,5.21-22.39,7.88-34.01,10.47c-3.95,0.88-8.03,1.23-12.06,1.79
				c-0.16,0.02-0.37-0.31-0.58-0.5c0.84-0.41,1.57-0.77,3.11-1.53c-1.51-0.07-2.09-0.17-2.65-0.11c-7.49,0.82-14.98,1.69-22.47,2.48
				C361.38,336.37,354.71,337.55,350.83,344.13z M244.98,460.56c0.43,0.1,0.85,0.2,1.28,0.3c6.66-25.57,13.32-51.13,19.98-76.7
				c-0.43-0.11-0.86-0.22-1.29-0.32C255.05,408.59,249.13,434.35,244.98,460.56z M286.74,398.12c-8.56,21.51-11.6,44.07-13.89,66.79
				C277.47,442.64,282.1,420.38,286.74,398.12z M257.12,356.15c-0.1,0.22-0.2,0.45-0.3,0.67c0.83,0.43,1.62,1.06,2.5,1.25
				c3.35,0.73,6.74,1.29,10.1,1.95c2.73,0.54,3.62-0.86,3.81-3.34c-5.18-0.23-10.21-0.46-15.25-0.68
				C257.7,355.99,257.41,356.1,257.12,356.15z M261.83,489.86c-2.03-1.43-3.15-2.84-4.42-2.98c-1.88-0.21-3.51,1.23-2.97,3.16
				c0.32,1.16,1.97,2.65,3.11,2.72C258.66,492.82,259.87,491.27,261.83,489.86z M295.65,355.19c-0.01-0.42-0.02-0.83-0.03-1.25
				c-1.1-0.74-2.32-2.21-3.27-2.06c-1.31,0.21-3.15,1.46-3.43,2.58c-0.42,1.68,0.92,3.48,2.97,3.15
				C293.25,357.4,294.41,356.04,295.65,355.19z M255.08,485.51c-0.38-0.18-0.77-0.36-1.15-0.54c-0.97,1.53-2.52,2.99-2.72,4.6
				c-0.17,1.38,1.21,2.95,1.9,4.44c0.55-0.1,1.11-0.2,1.66-0.3C251.74,490.72,253.19,488.09,255.08,485.51z M288.21,359.38
				c0.39-0.2,0.79-0.39,1.18-0.59c-0.62-1.39-1.76-2.8-1.72-4.18c0.05-1.44,1.23-2.84,1.92-4.26c-0.32-0.17-0.65-0.34-0.97-0.51
				c-0.83,1.5-2.28,2.98-2.32,4.5C286.27,356,287.52,357.7,288.21,359.38z M290.01,332.77c1.82-1.14,3.61-2.26,5.35-3.35
				C293.19,327.64,290.73,329.02,290.01,332.77z"/>
			<path class="st3" d="M232.93,309.6c-1.62,1.13-3.15,2.42-4.87,3.38c-9.94,5.51-19.4,0.15-19.89-10.96
				c-0.44-9.76,2.87-18.59,6.43-27.39c1.93-4.78,4.13-9.45,6.19-14.14c7.42,1.45,12.91,8.18,7.89,15.45
				c-3.39,4.91-6.06,10.39-8.32,15.91c-1.59,3.89-2.42,8.22-2.72,12.42c-0.3,4.18,1.98,5.6,6.08,4.24
				c5.57-1.83,9.83-5.65,12.22-10.66c3.25-6.81,5.62-14.02,8.29-21.09c2.49-6.6,4.88-13.25,7.42-20.19c4.21,1.13,7.44,3.46,9.59,6.9
				c1.18,1.89,2.1,1.77,3.89,1.11c3.01-1.11,6.11-2.43,9.25-2.68c7.41-0.59,10.92,2.51,11.85,9.78c0.79,6.18-0.72,12.06-2.69,17.85
				c-0.58,1.7-1.31,3.34-1.99,5c-1.74,4.23-1.42,4.65,3.99,4.68c0-1.04-0.01-2.09,0-3.14c0.22-14,6.64-24.9,17.6-33.55
				c1.96-1.55,3.63-1.97,5.35,0.43c0.42,0.59,2.21,0.99,2.76,0.61c4.21-2.84,8.62-3.32,12.92-0.75c4.87,2.92,6.23,7.86,6.7,13.08
				c0.77,8.41-2.03,15.86-6.57,22.82c-0.82,1.25-1.61,2.51-2.7,4.2c1.25,0.31,2.24,0.76,3.23,0.76c1.52,0.01,3.05-0.2,4.55-0.48
				c5.3-0.98,5.46-1.19,5.24-6.34c-0.6-13.57,3.86-24.84,15.85-32.51c4.04-2.58,8.47-4.24,13.5-4.06c4.02,0.14,7.31,1.56,10,4.41
				c5.35,5.67,5.41,17.64,0.12,23.21c-2.74,2.89-10.6,3.45-13.57,0.83c-0.4-0.35-0.29-1.59-0.02-2.26c1.19-2.95,2.73-5.78,3.75-8.78
				c1.39-4.12-0.94-6.48-5.28-5.35c-1.82,0.47-3.71,1.31-5.12,2.5c-5.73,4.8-9.65,10.75-10.98,18.1
				c-1.8,9.93,6.08,17.58,16.21,15.72c7.39-1.36,13.13-5.71,18.63-10.33c0.69-0.58,0.9-1.94,0.96-2.95
				c0.84-14.42,7.02-25.86,20.12-33c6-3.27,12.67-4.02,18.99-0.41c3.56,2.04,3.01-1.64,4.38-2.6c7.18,2.87,12.11,8.91,7.28,15.73
				c-3.67,5.18-6.48,11.1-8.72,17.03c-1.61,4.25-2.08,9.05-2.25,13.63c-0.12,3.2,2.21,4.39,4.95,2.48c3.48-2.43,6.52-5.58,9.32-8.77
				c1.68-1.91,2.52-4.51,3.8-6.77c0.37-0.65,0.98-1.16,2.14-1.41c0,0.55,0.13,1.14-0.02,1.64c-2.13,7.08-5.44,13.52-11.04,18.62
				c-6.04,5.49-12.42,4.59-16.82-2.24c-0.36-0.56-0.77-1.09-1.44-2.04c-4.3,6.07-10.21,8.56-17.26,7.65
				c-7.51-0.97-10.63-6.59-12.81-13.53c-1.09,1.12-1.79,1.86-2.52,2.59c-5.57,5.58-11.64,10.48-20.02,11
				c-7.73,0.48-14.28-2.08-18.6-8.66c-1.4-2.13-2.46-2.28-4.51-0.86c-4.82,3.35-10.23,4.11-16.04,3.16c-1.07-0.17-2.4,0.5-3.45,1.08
				c-2.72,1.51-5.15,3.79-8.05,4.66c-7.97,2.4-15.15-1.08-18.23-8.87c-1.35-3.41-3.92-3.11-6.53-3.63c-2.57-0.52-3.72,0.75-5.1,2.64
				c-5.52,7.54-12.6,12.39-22.69,11.31c-3.83-0.41-6.43-2.37-7.45-6.06c-0.87-3.13,0.76-6.98,3.85-9.1
				c4.55-3.13,9.76-3.71,15.15-3.66c5.5,0.05,5.77,0.05,7.21-5.02c1.4-4.94,2.21-10.04,3.18-15.09c0.17-0.9-0.12-1.89-0.23-3.2
				c-9.38,2.19-18.1,4.12-22.52,13.72c-8.35,18.12-17.17,36.05-25.81,54.04c-0.53,1.1-1.23,2.12-2.42,2.99
				c0.06-6.07,2.23-11.66,3.83-17.34c1.63-5.77,3.46-11.49,5.2-17.23C233.34,309.79,233.13,309.7,232.93,309.6z M386.02,297.51
				c-0.02,10.11,4.77,14.48,13.84,12.62c5.17-1.06,8.89-5.51,8.96-10.61c0.03-2.07,0-4.2,0.49-6.2c1.26-5.21,2.71-10.38,4.23-15.52
				c0.89-3.04-0.1-5.23-3.33-5.54c-2.46-0.24-5.12-0.07-7.48,0.63C395.57,275.02,385.05,286.98,386.02,297.51z M301.26,280.9
				c-5.89,6.3-8.54,12.95-7.67,20.83c0.39,3.51,1.96,6.18,5.46,7.59c3.63,1.46,6.75,0.2,9.75-1.66c1.53-0.95,1.82-2.02,0.18-3.23
				c-4.25-3.15-6.03-7.62-6.7-12.56C301.8,288.48,301.63,285.07,301.26,280.9z M321.53,282.82c-0.35-2.04-0.56-4.11-1.1-6.1
				c-0.72-2.6-1.79-2.84-3.82-1.07c-5.13,4.47-7.39,16.55-4.12,22.48c0.44,0.8,1.45,1.89,2.1,1.83c0.85-0.07,1.91-1,2.37-1.83
				C319.61,293.38,321.51,288.39,321.53,282.82z M266.95,301.28c-1.57,0.17-3,0.08-4.25,0.51c-3.02,1.03-6,2.2-8.89,3.54
				c-0.58,0.27-0.88,1.48-0.95,2.29c-0.02,0.28,1,0.85,1.61,0.94C259.06,309.22,264.91,305.93,266.95,301.28z"/>
			<path class="st3" d="M136.09,337.41c-5.83-0.89-8.46-4.16-8.21-9.31c0.82-16.67,4.97-32.56,11.3-48
				c4.23-10.31,8.22-20.71,12.47-31.46c4.11,1.16,8.37,2.97,10.15,7.44c0.76,1.92,0.25,4.72-0.59,6.76
				c-2.92,7.09-6.19,14.05-9.45,21c-0.97,2.06-0.55,2.88,1.7,3.59c13.5,4.26,24.87,0.33,34.85-8.58
				c7.8-6.97,13.38-15.43,16.65-25.29c2.17-6.52,0.6-10.15-6.03-12.75c-10.19-4.01-20.73-4.19-31.22-1.53
				c-15.68,3.97-29.5,11.23-40.48,23.12c-1.07,1.16-1.85,1.51-3.24,0.32c-6.12-5.25-6.44-12.61-0.3-17.66
				c14.08-11.56,30.68-16.91,48.82-18.12c9.22-0.62,18.36-0.1,26.97,3.57c3.05,1.3,6.02,2.96,8.67,4.91
				c5.3,3.88,7.33,9.35,5.97,15.57c-0.88,4.01-2.3,8.1-4.42,11.63c-4.46,7.45-9.12,14.93-16.13,20.44
				c-12.49,9.82-26.22,13.82-41.8,7.4c-1.28-0.53-2.53-1.08-3.23,0.75c-3.79,9.94-9.36,19.27-10.65,30.05
				C137.28,326.56,136.71,331.87,136.09,337.41z"/>
			<path class="st3" d="M264.26,212.07c-0.85,0.67-1.36,1.07-2.16,1.69c3.85,3.83,3.16,8.3,1.59,12.75
				c-1.84,5.22,0.53,8.91,4.46,11.91c2.46,1.88,5.24,3.34,7.73,4.9c-4.52,0.24-8.82-2.61-17-11.61c-0.53,0.85-1.05,1.67-1.8,2.89
				c0.01-4.59,0.95-6,4.59-7.55c1.98-0.84,2.14-3.83,0.56-6.57c-3.71-6.47-7.57-12.87-10.84-19.55c-1.39-2.84-2.28-6.38-1.95-9.46
				c0.48-4.38,1.8-8.84,3.65-12.87c2.2-4.76,6.66-7.52,11.84-8.64c5.06-1.09,10.24-1.67,15.35-2.54c1.79-0.31,3.81-0.42,5.25-1.34
				c1.55-0.98,3.17-2.65,3.61-4.3c0.63-2.35,1.48-2.73,3.77-2.36c5.56,0.9,8.8,4.21,10.76,9.06c0.36,0.89,0.68,1.8,1.21,3.19
				c0.4-1.4,0.65-2.27,1.03-3.56c4.93,5.74,0.44,10.34-0.73,14.67c-1.88-0.2-3.61-0.71-5.23-0.49c-4.04,0.56-7.73,0.1-11.6-1.38
				c-7.23-2.76-14.5-1.24-21.62,0.88c5.19,0.41,10.38-2.02,16.15,0.4c-1.19,2.57-2.34,5.03-3.49,7.49c0.16,0.01,0.33,0.02,0.49,0.03
				c-0.13,1.24,0.1,2.68-0.48,3.68c-0.82,1.42-2.01,2.99-3.44,3.64c-3.19,1.45-3.38,3.89-3.09,6.64c0.31,2.91,1.02,5.42,4.02,7.19
				c2.88,1.7,5.16,4.33,7.81,6.43c0.84,0.67,2,1.17,3.07,1.31c2.06,0.27,4.16,0.23,6.66,0.34c-0.69,1.38-1.11,2.22-1.63,3.25
				c4.47-0.76,8.7-1.47,13.77-2.33c-1.35-1-1.92-1.42-2.58-1.91c0.36-0.58,0.75-1.21,1.18-1.9c-0.42-0.25-0.71-0.56-0.9-0.51
				c-1.54,0.4-3.1,0.77-4.57,1.34c-3.83,1.48-7.08,0.52-8.17-2.2c4.05-1.42,8.11-2.85,12.17-4.28c-0.01-0.28-0.02-0.56-0.04-0.85
				c-1.59-0.27-3.19-0.54-5.08-0.86c0.05-0.56,0.11-1.37,0.19-2.36c2.41,0.79,4.57,1.5,6.04,1.99c1.72,2.38,3.12,4.32,4.7,6.49
				c-3.36,2.73-2.16,6.19-1.33,9.71c0.68,2.89,1.3,5.84,1.4,8.79c0.19,5.26-5.66,10.47-11.04,10.02c-0.92-0.08-1.85-0.74-2.65-1.3
				c-5.03-3.58-10.13-6.72-16.48-8.06c-3.43-0.72-6.72-3.28-9.37-5.73c-1.41-1.3-1.88-4.17-1.79-6.29c0.2-4.55,1.17-9.07,1.54-13.62
				c0.18-2.14-0.02-4.38-0.51-6.47c-0.74-3.11-3.33-4.9-6.57-4.61c-1.07,0.1-2.45,0.95-2.99,1.86c-2.03,3.38-1.38,7.12,1.6,10.43
				C262.13,210.48,263.17,211.16,264.26,212.07z"/>
			<path class="st3" d="M399.97,387.47c1.04,3.22-0.49,4.83-2.26,6.45c-2.94,2.69-5.98,5.32-8.64,8.25
				c-4.31,4.75-11.5,4.57-15.11-0.83c-1.63-2.44-3.65-3.39-6.39-3.02c-6.13,0.81-12.34,1.3-17.3,5.72c-1.12,1-3.11,1.34-4.74,1.48
				c-1.77,0.16-2.6,0.78-3.35,2.37c-0.79,1.66-2.01,3.53-3.57,4.36c-3.14,1.67-5.13,4.1-6.69,7.07c-0.79,1.5-1.52,3.04-2.43,4.47
				c-2.14,3.37-2.31,6.63-0.78,10.44c2.5,6.21-0.03,11.6-5.94,14c-3.73,1.52-7.32,0.41-9.64-2.82c-3.35-4.68-0.9-15.95,7.52-15.87
				c2.35,0.02,4.1-1.08,5.01-3.25c2.78-6.62,5.52-13.26,8.3-19.88c0.73-1.74-0.05-2.25-1.72-2.52c-7.74-1.25-15.46-2.6-23.18-3.92
				c-0.37-0.06-0.74-0.18-1.14-0.77c2.05-0.19,4.09-0.48,6.14-0.56c6.72-0.29,13.44-0.64,20.16-0.69c2.42-0.02,3.78-0.79,4.61-2.92
				c2.47-6.31,5-12.6,7.51-18.89c0.54-1.36,1.05-2.72,1.57-4.08c0.26,0.06,0.51,0.11,0.77,0.17c-1.15,8.22-2.31,16.44-3.52,25.11
				c3.92,0,7.66,0.17,11.38-0.04c4.37-0.24,8.76-0.59,13.05-1.36c1.54-0.28,3.17-1.68,4.15-3c4.45-6,9.59-6.53,15.04-1.33
				c3.26,3.11,4.31,3.15,7.58,0C397.56,390.43,398.57,389.08,399.97,387.47z M319.51,447.06c3.81,0.06,7.46-2.84,8.3-6.6
				c0.84-3.78-1.42-8.46-4.77-9.72c-0.61-0.23-1.43-0.27-2.04-0.06c-3.95,1.39-6.84,3.86-7.79,8
				C312.24,442.88,315.39,446.99,319.51,447.06z M381.84,389.74c-4.05,0.02-7.88,3.47-7.97,7.19c-0.1,3.66,3.85,7.2,7.95,7.14
				c4.31-0.07,7.93-3.34,7.87-7.13C389.62,393.09,385.94,389.72,381.84,389.74z"/>
			<path class="st3" d="M232.76,244.32c3.81-0.05,6.45,2.36,6.5,5.94c0.06,4.1-3.44,7.65-7.59,7.72c-3.7,0.06-5.72-2.23-5.7-6.48
				C226,247.27,228.74,244.36,232.76,244.32z"/>
			<path class="st3" d="M433.11,383.79c0.05-3.46,2.7-6.15,6.05-6.16c3.26-0.01,6.28,3.08,6.24,6.38c-0.04,3.46-2.62,5.83-6.32,5.8
				C435.36,389.78,433.05,387.46,433.11,383.79z"/>
			<path class="st3" d="M319.25,497.53c-3.5,0.03-6.31-2.62-6.29-5.91c0.03-3.6,2.68-6.14,6.4-6.11c3.38,0.03,6.17,2.78,6.17,6.08
				C325.54,494.82,322.7,497.5,319.25,497.53z"/>
			<path class="st3" d="M168.83,440.93c-0.47,3.63-2.39,5.07-4.79,6.22c-0.78,0.37-1.42,1.1-2,1.77c-1.46,1.7-2.59,3.8-4.33,5.13
				c-2.62,1.99-8.55-1-8.78-4.24c-0.04-0.54,0.54-1.23,1.01-1.67c4.11-3.85,8.3-7.62,12.38-11.49c1.12-1.06,1.99-1.26,3,0
				C166.6,438.22,167.89,439.78,168.83,440.93z M154.03,453.29c2.77,0.02,6.61-3.44,6.22-5.25c-0.29-1.32-1.33-2.6-2.36-3.58
				c-0.26-0.25-1.85,0.62-2.66,1.2c-0.97,0.69-1.84,1.57-2.61,2.48c-0.65,0.76-1.74,2.14-1.5,2.46
				C151.99,451.81,153.33,452.68,154.03,453.29z M167.03,440.37c-0.57-0.56-2.3-2.5-2.44-2.39c-2.03,1.49-3.84,3.26-5.7,4.96
				c1.19,0.91,2.27,2.36,3.6,2.62C164.47,445.94,167.06,443.1,167.03,440.37z"/>
			<path class="st3" d="M102.59,362.48c6.5-1.46,12.55-2.8,18.59-4.18c1.91-0.44,2.43,0.28,3.04,2.12c2.02,6.13-2.37,8.49-7.36,7.56
				c-0.65-0.12-1.43,0.21-2.09,0.47c-2.01,0.8-3.92,1.96-6,2.45c-2.37,0.56-4.21-0.59-4.93-2.93
				C103.32,366.29,103.05,364.54,102.59,362.48z M108.46,369.34c0.93-0.23,2.38-0.4,3.65-0.95c2.11-0.91,2.39-2.56,1.84-4.68
				c-0.66-2.51-2.24-1.26-3.57-1.09c-1.1,0.14-2.22,0.29-3.26,0.65c-1.16,0.4-3.24-0.05-2.84,2.18
				C104.65,367.46,105.33,369.35,108.46,369.34z M114.95,361.6c0.44,4.55,3.42,6.32,6.75,4.03c1.02-0.7,1.5-2.81,1.42-4.24
				c-0.1-2-1.83-1.21-3.06-0.95C118.41,360.8,116.76,361.19,114.95,361.6z"/>
			<path class="st3" d="M127.91,423.79c1.07-0.83,2.11-1.71,3.22-2.47c4.08-2.78,8.23-5.46,12.24-8.32
				c1.44-1.03,2.25-0.77,3.25,0.48c3.58,4.45,2.87,7.87-2.13,9.87c-0.55,0.22-1.34,0.56-1.73,0.34c-2.75-1.53-3.68,0.54-4.98,2.15
				c-1.4,1.74-2.99,3.34-4.49,5.01c-0.36-0.31-0.71-0.62-1.07-0.93c1.87-2.23,3.81-4.39,5.55-6.71c0.53-0.7,0.5-1.81,0.73-2.73
				c-1.04,0.07-2.25-0.18-3.09,0.26c-1.77,0.94-3.33,2.26-5.02,3.35c-0.56,0.36-1.29,0.48-1.95,0.71
				C128.26,424.47,128.08,424.13,127.91,423.79z M147.84,417.35c-0.93-0.98-2.43-2.94-2.7-2.8c-2.11,1.19-3.99,2.77-5.93,4.23
				c1.2,0.99,2.26,2.53,3.62,2.85C144.85,422.1,147.31,419.66,147.84,417.35z"/>
			<path class="st3" d="M382.09,473.7c-4.16-5.54-8.54-10.92-12.08-16.88c0.34-0.25,0.67-0.5,1.01-0.75
				c1.36,1.73,2.91,3.36,4.04,5.23c1.4,2.3,2.64,1.37,4.16,0.26c1.47-1.08,3.33-1.78,1.38-4.08c-1.45-1.71-2.53-3.71-3.77-5.58
				c0.41-0.26,0.82-0.51,1.23-0.77c4.15,5.6,8.31,11.2,12.46,16.79c-0.29,0.27-0.58,0.54-0.87,0.81c-0.6-0.47-1.3-0.86-1.78-1.43
				c-0.97-1.15-1.79-2.41-2.71-3.61c-2.45-3.19-2.35-3.03-5.76-0.87c-2.03,1.29-1.65,2.27-0.47,3.77c1.57,1.99,2.97,4.1,4.45,6.15
				C382.96,473.07,382.53,473.38,382.09,473.7z"/>
			<path class="st3" d="M414.38,445.52c-1.51,1.58-2.66,3.5-4.37,4.31c-1.14,0.54-3.46-0.03-4.57-0.92
				c-3.46-2.76-6.64-5.85-9.83-8.91c-2.04-1.97-1.72-3.68,0.9-6.38c2.18-2.24,3.92-2.46,6.03-0.59c3.3,2.95,6.58,5.93,9.76,9
				C413.1,442.8,413.49,443.98,414.38,445.52z M413.36,446.69c-0.31-0.37-0.62-0.74-0.92-1.12c-0.3-0.6-0.47-1.35-0.93-1.79
				c-3.42-3.23-6.88-6.41-10.37-9.56c-1.6-1.44-2.95-0.64-4.2,0.62c-1.28,1.3-1.37,2.61,0,3.88c3.37,3.14,6.72,6.3,10.2,9.31
				c0.6,0.52,1.91,0.65,2.74,0.42C411.11,448.12,412.21,447.3,413.36,446.69z"/>
			<path class="st3" d="M208.65,491.41c0.27-2.26,0.53-4.51,0.82-6.77c0.1-0.78,0.5-1.58,0.4-2.33c-0.11-0.83-0.65-1.61-1-2.41
				c-0.73,0.44-1.74,0.71-2.12,1.34c-0.93,1.53-1.5,3.25-2.33,4.84c-0.45,0.87-1.13,1.63-1.71,2.45c-0.29-0.14-0.59-0.28-0.88-0.41
				c0.26-0.84,0.42-1.72,0.79-2.51c1.95-4.25,3.88-8.51,5.99-12.69c0.64-1.28,2.06-3.38,2.7-3.25c2.48,0.54,5.27,1.23,6.05,4.27
				c0.59,2.31-1.07,5.92-3.5,6.6c-2.19,0.61-2.44,1.88-2.62,3.66c-0.24,2.49-0.73,4.95-1.12,7.42
				C209.63,491.55,209.14,491.48,208.65,491.41z M216.47,474.36c-1.31-1.13-2.24-2.34-3.47-2.81c-0.55-0.21-1.83,0.93-2.53,1.69
				c-0.59,0.63-0.99,1.56-1.14,2.41c-0.17,1.01-0.18,2.91,0.09,2.97c1.37,0.32,3.19,0.68,4.21,0.04
				C214.82,477.91,215.35,476.16,216.47,474.36z"/>
			<path class="st3" d="M112.29,393.53c6.5-1.5,12.99-3.03,19.51-4.45c0.57-0.12,1.64,0.37,1.89,0.87c0.27,0.53,0.09,1.75-0.34,2.05
				c-5.38,3.71-10.84,7.31-16.3,10.91c-0.15,0.1-0.53-0.13-1.8-0.47c1.79-1.31,2.98-2.34,4.33-3.11c1.6-0.91,2.04-1.85,1.23-3.62
				c-0.81-1.79-1.91-1.99-3.63-1.58c-1.57,0.37-3.2,0.5-4.8,0.73C112.36,394.41,112.32,393.97,112.29,393.53z M131.1,391.67
				c-0.12-0.24-0.24-0.48-0.36-0.73c-2.23,0.53-4.45,1.1-6.69,1.6c-3.59,0.8-3.82,1.51-1.14,4.38
				C125.62,395.18,128.36,393.43,131.1,391.67z"/>
			<path class="st3" d="M290.48,198.73c0.86-0.73,1.67-1.41,3.19-2.69c-2.76,0.16-4.77,0.28-7.28,0.42
				c4.11-3.7,10.31-4.7,15.09-2.81C298.16,199.25,296.93,201.9,290.48,198.73z"/>
			<path class="st3" d="M430.2,425.32c-0.86-0.34-1.79-0.56-2.57-1.03c-4.65-2.83-9.22-5.77-13.91-8.54
				c-1.64-0.97-1.65-1.8-0.73-3.32c3.04-5.02,5.86-5.68,10.21-2.33c2.41,1.86,2.98,4.08,1.3,6.49c-1.58,2.27-0.92,3.42,1.34,4.54
				c1.74,0.86,3.29,2.09,4.92,3.16C430.58,424.62,430.39,424.97,430.2,425.32z M423.94,413.72c-0.6-0.62-1.46-2-2.72-2.65
				c-1.39-0.72-3.35-1.39-4.69-0.96c-2.7,0.86-2.77,3.49-0.43,4.96c1.02,0.64,2.05,1.28,3.07,1.92
				C421.88,418.69,423.64,417.81,423.94,413.72z"/>
			<path class="st3" d="M352.21,486.52c0.66,0.23,1.33,0.65,1.99,0.63c1.21-0.03,2.72,0.05,3.51-0.61c0.64-0.52,0.74-2.14,0.48-3.13
				c-0.83-3.28-3.55-4.34-6.64-4.8c-3.08-0.46-5.29-1.96-6.09-5.06c-0.52-2.01,0.47-3.53,2.23-4.01c1.78-0.48,3.78-0.22,5.68-0.2
				c0.11,0,0.22,0.8,0.35,1.31c-0.52,0.08-0.92,0.26-1.07,0.15c-1.99-1.63-4-1.38-5.15,0.67c-1.26,2.25,0.6,3.72,2.41,4.72
				c1.02,0.57,2.31,0.74,3.5,0.96c3.7,0.68,5.98,2.81,6.88,6.34c0.68,2.66-0.73,4.23-3.12,4.99
				C355.21,489.1,353.11,489.52,352.21,486.52z"/>
			<path class="st3" d="M192.88,460.15c-2.99-1.33-5.81-4.83-8.7,0.19c-1.33,2.3-1.11,3.78,0.86,5.17
				c-1.75,0.17-3.58-0.13-4.77,0.58c-1.28,0.76-2.01,2.43-2.89,3.76c-0.78,1.2-0.72,1.24,3.58,6.02c-0.17,0.22-0.33,0.44-0.5,0.67
				c-1.64-1.34-3.82-2.41-4.74-4.13c-0.61-1.14,0.25-3.39,1.08-4.79c0.92-1.54,2.58-2.65,3.88-3.99c0.39-0.4,0.73-0.92,0.91-1.44
				C184,454.99,187.61,454.2,192.88,460.15z"/>
			<path class="st3" d="M173.23,379.71c-3.76,2.13-4.97,1.55-4.99-2.39c-0.01-3.05,0-6.09,0-9.07c5.45-0.63,6.2-0.13,6.03,4.5
				c-0.09,2.36-0.73,4.69-1.12,7.04c0.07-2.97,0.36-5.95,0.09-8.89c-0.09-0.93-1.68-1.73-2.58-2.59c-0.45,0.84-1.18,1.64-1.29,2.52
				c-0.21,1.66-0.07,3.36-0.08,5.05C169.28,379.82,169.28,379.82,173.23,379.71z"/>
			<path class="st3" d="M189.67,368.1c5.86-0.26,6.14-0.02,6.14,5.01c0,1.48,0.06,2.97-0.07,4.45c-0.22,2.52-1.97,3.25-4.26,3.19
				c-2.54-0.07-1.74-2-1.78-3.31C189.6,374.39,189.67,371.34,189.67,368.1z M190.63,373.59c0.01,0,0.03,0,0.04,0
				c0,1.39-0.18,2.81,0.07,4.15c0.14,0.73,1.01,1.85,1.58,1.86c0.73,0.02,2.08-0.84,2.13-1.4c0.24-2.65,0.31-5.35,0.01-7.99
				c-0.08-0.73-1.68-1.29-2.59-1.93c-0.42,0.78-1.01,1.52-1.2,2.35C190.47,371.58,190.63,372.6,190.63,373.59z"/>
			<path class="st3" d="M222.14,403.53c0-3.37,0.1-6.69-0.09-10c-0.04-0.61-1.52-1.77-1.88-1.62c-0.84,0.35-1.92,1.3-1.98,2.07
				c-0.22,3.04-0.09,6.1-0.48,9.82c-0.19-0.48-0.52-0.96-0.54-1.45c-0.1-3.16-0.31-6.34-0.03-9.47c0.06-0.63,1.98-1.44,3.11-1.55
				c0.86-0.09,2.6,0.76,2.62,1.24c0.14,3.53-0.05,7.08-0.19,10.62C222.68,403.34,222.22,403.48,222.14,403.53z"/>
			<path class="st3" d="M214.06,403.58c0-2.89,0.04-5.82-0.02-8.75c-0.03-1.32,0.24-3.02-1.96-3c-2.24,0.02-2.16,1.67-2.17,3.19
				c-0.01,2.72,0,5.43-0.16,8.16c-1.16-3.54-1.28-7.19-0.24-10.78c0.47-1.63,4.22-1.7,5.23-0.29
				C215.92,393.77,215.39,401.87,214.06,403.58z"/>
			<path class="st3" d="M201.53,368.17c-2.68-0.24-2.9,1.37-2.84,3.26c0.05,1.58,0.17,3.18,0,4.74c-0.26,2.47,0.39,4.03,4.04,3.65
				c-3.73,1.46-5.46,0.27-5.44-2.9c0.01-1.94,0.01-3.87,0-5.81C197.28,368.6,198.08,368,201.53,368.17z"/>
			<path class="st3" d="M183.43,379.88c1.18-0.37,2.37-0.74,3.55-1.11c-0.47-1.39-0.81-2.84-1.45-4.15
				c-0.32-0.66-1.49-0.96-1.71-1.61c-0.46-1.37-0.55-2.87-0.8-4.31c1.47-0.24,2.95-0.47,4.42-0.71c0,0.2,0.01,0.39,0.01,0.59
				c-1.2,0.27-2.4,0.54-3.61,0.81c0.63,1.32,1.21,2.68,1.91,3.96c0.73,1.33,1.93,2.52,2.27,3.92c0.21,0.84-0.58,2.38-1.38,2.87
				c-0.83,0.5-2.23,0.11-3.39,0.11C183.33,380.13,183.38,380.01,183.43,379.88z"/>
			<path class="st3" d="M265.63,209.81c-2.23-0.92-3.1-1.83-1.55-4.02c2.53-3.59,1.7-5.59-2.23-6.18c2.45-1.07,5.25,0.64,4.96,3.12
				C266.55,204.96,266.08,207.19,265.63,209.81z"/>
			<path class="st3" d="M201.42,402.81c-0.61-1.75,0.06-3.55,1.98-4.96c0.41-0.3,1.01-0.51,1.19-0.9c0.59-1.27,1.51-2.69,1.31-3.89
				c-0.11-0.65-2.25-0.97-4.17-1.71c1.84,0.18,3.72-0.15,4.48,0.59c0.73,0.72,0.45,2.57,0.34,3.9c-0.05,0.59-0.73,1.15-1.15,1.7
				C204.07,399.3,202.73,401.07,201.42,402.81z"/>
			<path class="st3" d="M181.43,380.13c-3.86,0.93-5.24,0.07-5.34-2.77c-0.08-2.15-0.01-4.31-0.03-6.46
				c-0.02-2.77,1.62-3.3,4.09-2.85c-3.04,0.67-3.79,2.09-2.7,4.82c0.2,0.51,0.35,1.2,0.16,1.67
				C176.11,378.27,176.72,379.39,181.43,380.13z"/>
			<path class="st3" d="M306.64,199.7c-2.47-3.46-2.21-4.83,1.67-7.31C307.7,195.05,307.21,197.18,306.64,199.7z"/>
			<path class="st3" d="M225.28,403.29c0-3.49-0.5-7.08,0.17-10.44c0.49-2.47,3-1.8,5.16-0.96c-1.61,0.24-3.5,0.01-4.11,0.76
				c-0.67,0.83-0.14,2.57-0.19,3.91c-0.08,2.22-0.2,4.45-0.31,6.67C225.77,403.24,225.52,403.26,225.28,403.29z"/>
			<path d="M415.75,347.42c1.17-0.15,2.33-0.3,3.5-0.46c-11.33,4.61-23.58,5.43-35.37,8.16c0.05,0.31,0.1,0.62,0.14,0.93
				c4.69-0.67,9.4-1.21,14.06-2.03c4.9-0.87,9.77-1.96,14.63-3.06c4.76-1.08,9.48-2.29,14.22-3.45c4.72-1.15,9.44-2.29,14.15-3.43
				c0.09,0.23,0.18,0.45,0.26,0.68c-1.21,0.49-2.39,1.1-3.63,1.47c-17.83,5.3-35.82,10.02-54.44,11.8
				c-5.12,0.49-10.38,0.17-15.51-0.36c-4.53-0.46-8.62-2.38-11.49-6.1c-2.3-2.98-2.04-4.24,1.64-4.93c5.36-1,10.83-1.5,16.27-2.1
				c2.24-0.25,4.58,0.4,6.55-1.46c0.68-0.64,2.12-0.63,3.22-0.72c11.52-0.97,22.67-3.66,33.77-6.66c1.83-0.49,3.86-0.71,5.73-0.48
				c1.45,0.18,3.52,0.94,3.99,2c0.55,1.26,0.22,3.58-0.7,4.6c-1.39,1.53-3.54,2.5-5.52,3.41c-1.73,0.8-3.65,1.18-5.49,1.75
				C415.74,347.13,415.74,347.27,415.75,347.42z"/>
			<path d="M350.83,344.13c3.87-6.58,10.55-7.76,17.47-8.49c7.49-0.79,14.98-1.67,22.47-2.48c0.56-0.06,1.14,0.04,2.65,0.11
				c-1.53,0.75-2.27,1.12-3.11,1.53c0.21,0.19,0.42,0.52,0.58,0.5c4.03-0.56,8.11-0.91,12.06-1.79
				c11.62-2.59,23.23-5.26,34.01-10.47c0.55-0.26,1.14-0.66,1.69-0.63c0.86,0.05,1.69,0.41,2.54,0.64
				c-0.43,0.85-0.64,2.17-1.32,2.46c-3.64,1.54-7.36,2.91-11.12,4.16c-7.1,2.35-14.13,5.13-21.42,6.71
				c-7.11,1.53-14.5,1.95-21.79,2.56c-8.61,0.72-17.24,1.18-25.87,1.65c-3.27,0.18-5.66,1.55-7.1,4.35
				c-0.95,1.84-2.17,1.98-3.99,1.3c-1.7-0.64-3.51-1.03-5.31-1.36c-6.45-1.16-11.74,0.62-15.24,6.22c-1.22,1.96-2.46,2.61-4.69,1.66
				c-4-1.7-7.99-2.09-11.98,0.26c-1.04,0.61-2.45,0.64-3.77,0.95c0.24-5.6,3.39-10.01,8.18-11.53c3.87-1.22,7.76-2.48,11.73-3.26
				c2.07-0.41,4.35,0.18,6.53,0.34c0.69,0.05,1.38,0.33,2.06,0.28C344.24,339.19,344.59,339.28,350.83,344.13z"/>
			<path d="M244.98,460.56c4.14-26.21,10.06-51.97,19.96-76.72c0.43,0.11,0.86,0.22,1.29,0.32c-6.66,25.57-13.32,51.13-19.98,76.7
				C245.84,460.76,245.41,460.66,244.98,460.56z"/>
			<path d="M286.74,398.12c-4.63,22.26-9.26,44.52-13.89,66.79C275.14,442.19,278.18,419.63,286.74,398.12z"/>
			<path d="M257.12,356.15c0.29-0.05,0.59-0.16,0.87-0.15c5.04,0.22,10.07,0.44,15.25,0.68c-0.2,2.48-1.08,3.88-3.81,3.34
				c-3.37-0.66-6.75-1.23-10.1-1.95c-0.89-0.19-1.67-0.82-2.5-1.25C256.92,356.59,257.02,356.37,257.12,356.15z"/>
			<path d="M261.83,489.86c-1.96,1.41-3.18,2.96-4.29,2.9c-1.13-0.07-2.79-1.56-3.11-2.72c-0.53-1.93,1.1-3.36,2.97-3.16
				C258.68,487.02,259.8,488.43,261.83,489.86z"/>
			<path d="M295.65,355.19c-1.25,0.85-2.41,2.21-3.76,2.43c-2.06,0.33-3.39-1.47-2.97-3.15c0.28-1.12,2.13-2.37,3.43-2.58
				c0.95-0.15,2.17,1.31,3.27,2.06C295.64,354.36,295.64,354.77,295.65,355.19z"/>
			<path d="M255.08,485.51c-1.9,2.59-3.34,5.21-0.32,8.2c-0.55,0.1-1.11,0.2-1.66,0.3c-0.69-1.49-2.07-3.05-1.9-4.44
				c0.2-1.62,1.76-3.08,2.72-4.6C254.31,485.15,254.7,485.33,255.08,485.51z"/>
			<path d="M288.21,359.38c-0.69-1.68-1.95-3.38-1.9-5.04c0.04-1.52,1.49-3,2.32-4.5c0.32,0.17,0.65,0.34,0.97,0.51
				c-0.69,1.42-1.87,2.82-1.92,4.26c-0.04,1.37,1.1,2.78,1.72,4.18C289,358.99,288.61,359.18,288.21,359.38z"/>
			<path d="M290.01,332.77c0.73-3.75,3.19-5.13,5.35-3.35C293.62,330.51,291.83,331.63,290.01,332.77z"/>
			<path d="M386.02,297.51c-0.97-10.53,9.56-22.5,16.72-24.62c2.35-0.7,5.02-0.87,7.48-0.63c3.23,0.32,4.22,2.51,3.33,5.54
				c-1.52,5.14-2.97,10.31-4.23,15.52c-0.48,1.99-0.45,4.13-0.49,6.2c-0.08,5.1-3.79,9.55-8.96,10.61
				C390.79,311.99,386,307.63,386.02,297.51z"/>
			<path d="M301.26,280.9c0.37,4.17,0.54,7.59,1.01,10.96c0.68,4.94,2.45,9.41,6.7,12.56c1.64,1.21,1.35,2.28-0.18,3.23
				c-3,1.86-6.12,3.12-9.75,1.66c-3.49-1.41-5.07-4.08-5.46-7.59C292.72,293.85,295.37,287.2,301.26,280.9z"/>
			<path d="M321.53,282.82c-0.02,5.58-1.92,10.56-4.57,15.3c-0.46,0.83-1.51,1.75-2.37,1.83c-0.65,0.06-1.66-1.03-2.1-1.83
				c-3.27-5.92-1.01-18.01,4.12-22.48c2.02-1.76,3.1-1.53,3.82,1.07C320.97,278.7,321.17,280.78,321.53,282.82z"/>
			<path d="M266.95,301.28c-2.04,4.66-7.89,7.94-12.48,7.27c-0.6-0.09-1.63-0.66-1.61-0.94c0.07-0.81,0.36-2.02,0.95-2.29
				c2.89-1.33,5.87-2.51,8.89-3.54C263.95,301.36,265.38,301.44,266.95,301.28z"/>
			<path d="M319.51,447.06c-4.12-0.07-7.26-4.18-6.3-8.38c0.95-4.14,3.84-6.61,7.79-8c0.6-0.21,1.43-0.16,2.04,0.06
				c3.35,1.26,5.61,5.94,4.77,9.72C326.97,444.22,323.31,447.12,319.51,447.06z"/>
			<path d="M381.84,389.74c4.1-0.02,7.78,3.35,7.84,7.2c0.06,3.79-3.55,7.06-7.87,7.13c-4.1,0.06-8.04-3.48-7.95-7.14
				C373.96,393.21,377.79,389.76,381.84,389.74z"/>
			<path d="M154.03,453.29c-0.7-0.6-2.04-1.48-2.92-2.68c-0.24-0.32,0.86-1.7,1.5-2.46c0.77-0.91,1.64-1.78,2.61-2.48
				c0.81-0.58,2.4-1.45,2.66-1.2c1.03,0.97,2.07,2.25,2.36,3.58C160.64,449.85,156.8,453.31,154.03,453.29z"/>
			<path d="M167.03,440.37c0.03,2.74-2.56,5.57-4.54,5.19c-1.32-0.26-2.41-1.7-3.6-2.62c1.86-1.7,3.67-3.47,5.7-4.96
				C164.74,437.87,166.47,439.8,167.03,440.37z"/>
			<path d="M108.46,369.34c-3.13,0.01-3.81-1.88-4.18-3.89c-0.4-2.23,1.67-1.78,2.84-2.18c1.04-0.36,2.16-0.51,3.26-0.65
				c1.33-0.17,2.91-1.41,3.57,1.09c0.56,2.13,0.28,3.77-1.84,4.68C110.83,368.94,109.39,369.11,108.46,369.34z"/>
			<path d="M114.95,361.6c1.81-0.41,3.46-0.8,5.12-1.16c1.22-0.26,2.95-1.04,3.06,0.95c0.07,1.43-0.4,3.54-1.42,4.24
				C118.37,367.92,115.39,366.15,114.95,361.6z"/>
			<path d="M147.84,417.35c-0.53,2.31-2.99,4.76-5.01,4.29c-1.36-0.32-2.42-1.86-3.62-2.85c1.95-1.46,3.82-3.04,5.93-4.23
				C145.41,414.4,146.92,416.36,147.84,417.35z"/>
			<path d="M413.36,446.69c-1.15,0.61-2.25,1.43-3.48,1.77c-0.83,0.23-2.14,0.09-2.74-0.42c-3.48-3.01-6.83-6.18-10.2-9.31
				c-1.36-1.27-1.27-2.58,0-3.88c1.24-1.26,2.6-2.06,4.2-0.62c3.49,3.15,6.95,6.34,10.37,9.56c0.47,0.44,0.63,1.18,0.93,1.79
				C412.74,445.95,413.05,446.32,413.36,446.69z"/>
			<path d="M216.47,474.36c-1.12,1.8-1.65,3.55-2.84,4.29c-1.02,0.64-2.84,0.28-4.21-0.04c-0.27-0.06-0.26-1.96-0.09-2.97
				c0.15-0.85,0.55-1.77,1.14-2.41c0.7-0.75,1.98-1.9,2.53-1.69C214.22,472.02,215.15,473.23,216.47,474.36z"/>
			<path d="M131.1,391.67c-2.74,1.76-5.48,3.51-8.19,5.25c-2.68-2.87-2.45-3.58,1.14-4.38c2.24-0.5,4.46-1.06,6.69-1.6
				C130.87,391.19,130.98,391.43,131.1,391.67z"/>
			<path d="M423.94,413.72c-0.3,4.1-2.06,4.97-4.77,3.26c-1.02-0.64-2.05-1.28-3.07-1.92c-2.34-1.47-2.26-4.09,0.43-4.96
				c1.34-0.43,3.3,0.25,4.69,0.96C422.48,411.71,423.34,413.1,423.94,413.72z"/>
			<path d="M173.23,379.71c-3.95,0.12-3.95,0.12-3.94-3.83c0.01-1.68-0.14-3.39,0.08-5.05c0.11-0.88,0.84-1.68,1.29-2.52
				c0.9,0.86,2.49,1.66,2.58,2.59c0.27,2.94-0.02,5.92-0.09,8.89C173.15,379.79,173.23,379.71,173.23,379.71z"/>
			<path d="M190.63,373.59c0-0.99-0.16-2.01,0.05-2.96c0.18-0.83,0.78-1.57,1.2-2.35c0.9,0.64,2.5,1.2,2.59,1.93
				c0.31,2.64,0.23,5.34-0.01,7.99c-0.05,0.57-1.4,1.42-2.13,1.4c-0.57-0.01-1.44-1.13-1.58-1.86c-0.26-1.34-0.07-2.76-0.07-4.15
				C190.66,373.59,190.65,373.59,190.63,373.59z"/>
		</g>
	</g>
</g>
<g id="Camada_2">
	<path class="st3" d="M973.34,490.55c-6.31,4.42-12.28,9.43-19,13.16c-38.74,21.47-75.61,0.6-77.54-42.71
		c-1.7-38.05,11.19-72.47,25.06-106.77c7.53-18.63,16.11-36.85,24.15-55.1c28.93,5.64,50.31,31.89,30.75,60.24
		c-13.21,19.14-23.63,40.52-32.42,62.01c-6.2,15.15-9.42,32.06-10.61,48.41c-1.18,16.3,7.7,21.82,23.71,16.55
		c21.7-7.15,38.31-22.02,47.63-41.56c12.67-26.54,21.92-54.66,32.32-82.21c9.71-25.74,19.01-51.64,28.93-78.68
		c16.42,4.39,29.01,13.47,37.38,26.9c4.59,7.35,8.2,6.9,15.16,4.33c11.73-4.33,23.81-9.45,36.07-10.44
		c28.87-2.32,42.57,9.78,46.2,38.11c3.08,24.08-2.82,47-10.49,69.57c-2.25,6.61-5.09,13.02-7.75,19.5
		c-6.77,16.49-5.54,18.12,15.56,18.24c0-4.07-0.06-8.15,0.01-12.22c0.87-54.57,25.89-97.07,68.59-130.78
		c7.65-6.04,14.14-7.66,20.84,1.69c1.64,2.28,8.61,3.85,10.76,2.4c16.4-11.07,33.58-12.95,50.34-2.92
		c18.99,11.36,24.28,30.65,26.13,51c2.99,32.8-7.91,61.82-25.62,88.96c-3.18,4.88-6.29,9.79-10.52,16.38
		c4.88,1.22,8.74,2.96,12.6,2.98c5.91,0.02,11.89-0.78,17.72-1.86c20.64-3.83,21.3-4.66,20.42-24.7
		c-2.33-52.9,15.05-96.81,61.79-126.72c15.74-10.08,33.03-16.52,52.64-15.83c15.66,0.55,28.48,6.07,38.96,17.19
		c20.84,22.09,21.07,68.76,0.48,90.47c-10.7,11.28-41.32,13.44-52.88,3.22c-1.55-1.37-1.14-6.19-0.08-8.82
		c4.63-11.51,10.66-22.53,14.62-34.24c5.43-16.06-3.68-25.24-20.57-20.86c-7.08,1.84-14.47,5.12-19.98,9.73
		c-22.33,18.7-37.6,41.89-42.8,70.57c-7.02,38.69,23.68,68.53,63.18,61.27c28.82-5.3,51.16-22.27,72.63-40.28
		c2.69-2.25,3.52-7.55,3.75-11.52c3.26-56.22,27.36-100.81,78.42-128.62c23.39-12.74,49.37-15.69,74-1.59
		c13.89,7.95,11.74-6.38,17.09-10.15c27.98,11.2,47.21,34.71,28.36,61.33c-14.3,20.19-25.25,43.26-34.01,66.37
		c-6.27,16.56-8.11,35.26-8.77,53.12c-0.46,12.46,8.63,17.13,19.31,9.68c13.57-9.47,25.4-21.75,36.34-34.19
		c6.54-7.45,9.81-17.6,14.82-26.39c1.44-2.52,3.81-4.53,8.32-5.5c0,2.14,0.52,4.43-0.08,6.41c-8.29,27.59-21.22,52.71-43.04,72.57
		c-23.53,21.41-48.42,17.88-65.56-8.73c-1.41-2.19-3-4.26-5.62-7.95c-16.76,23.65-39.79,33.38-67.28,29.83
		c-29.26-3.77-41.42-25.67-49.94-52.76c-4.24,4.37-6.98,7.26-9.81,10.09c-21.73,21.74-45.36,40.85-78.05,42.89
		c-30.12,1.88-55.66-8.11-72.49-33.74c-5.45-8.3-9.6-8.9-17.57-3.36c-18.78,13.06-39.89,16.01-62.51,12.33
		c-4.16-0.67-9.37,1.95-13.43,4.2c-10.61,5.87-20.09,14.77-31.37,18.17c-31.07,9.36-59.05-4.2-71.06-34.59
		c-5.25-13.28-15.29-12.1-25.45-14.16c-10-2.03-14.49,2.94-19.88,10.3c-21.5,29.4-49.13,48.28-88.45,44.1
		c-14.94-1.59-25.08-9.24-29.05-23.61c-3.37-12.2,2.98-27.19,14.99-35.47c17.74-12.22,38.03-14.46,59.05-14.27
		c21.44,0.2,22.49,0.21,28.09-19.58c5.45-19.26,8.62-39.14,12.41-58.81c0.68-3.51-0.48-7.36-0.91-12.48
		c-36.56,8.55-70.54,16.04-87.79,53.48c-32.56,70.64-66.91,140.5-100.59,210.65c-2.06,4.28-4.78,8.26-9.44,11.66
		c0.25-23.65,8.69-45.43,14.94-67.59c6.35-22.49,13.48-44.77,20.27-67.14C974.94,491.29,974.14,490.92,973.34,490.55z
		 M1570.07,443.42c-0.07,39.42,18.59,56.43,53.96,49.2c20.17-4.12,34.64-21.48,34.94-41.36c0.12-8.08,0.02-16.39,1.89-24.16
		c4.9-20.3,10.57-40.45,16.48-60.5c3.49-11.84-0.37-20.37-12.97-21.61c-9.57-0.94-19.97-0.28-29.14,2.45
		C1607.32,355.74,1566.29,402.38,1570.07,443.42z M1239.69,378.66c-22.96,24.58-33.3,50.49-29.91,81.19
		c1.51,13.68,7.66,24.09,21.26,29.58c14.14,5.7,26.29,0.78,37.99-6.47c5.96-3.7,7.08-7.87,0.7-12.6
		c-16.57-12.28-23.49-29.7-26.12-48.96C1241.81,408.23,1241.14,394.92,1239.69,378.66z M1318.7,386.14
		c-1.38-7.94-2.17-16.04-4.3-23.78c-2.79-10.14-7-11.05-14.88-4.18c-20,17.43-28.82,64.52-16.06,87.61c1.71,3.1,5.64,7.35,8.19,7.13
		c3.33-0.29,7.43-3.9,9.23-7.12C1311.21,427.3,1318.62,407.88,1318.7,386.14z M1105.97,458.09c-6.12,0.66-11.71,0.31-16.58,1.97
		c-11.77,4-23.38,8.59-34.64,13.78c-2.28,1.05-3.42,5.77-3.69,8.91c-0.09,1.08,3.92,3.32,6.26,3.66
		C1075.22,489.04,1098.02,476.25,1105.97,458.09z"/>
	<path class="st3" d="M595.89,598.94c-22.71-3.47-32.98-16.23-31.99-36.29c3.2-64.96,19.39-126.91,44.06-187.09
		c16.47-40.18,32.04-80.71,48.62-122.61c16.02,4.53,32.63,11.56,39.56,28.99c2.97,7.47,0.99,18.39-2.29,26.35
		c-11.39,27.64-24.13,54.76-36.82,81.87c-3.76,8.04-2.13,11.22,6.64,13.98c52.61,16.61,96.94,1.29,135.82-33.45
		c30.39-27.16,52.14-60.14,64.91-98.58c8.44-25.41,2.33-39.55-23.5-49.7c-39.73-15.63-80.81-16.32-121.69-5.96
		c-61.1,15.48-114.99,43.79-157.77,90.13c-4.18,4.53-7.21,5.9-12.65,1.23c-23.84-20.48-25.12-49.15-1.17-68.82
		c54.88-45.07,119.59-65.91,190.3-70.63c35.94-2.4,71.57-0.38,105.12,13.9c11.88,5.06,23.45,11.55,33.81,19.14
		c20.64,15.11,28.58,36.46,23.25,60.67c-3.44,15.64-8.98,31.59-17.22,45.32c-17.4,29.03-35.55,58.18-62.87,79.66
		c-48.7,38.28-102.19,53.88-162.93,28.86c-5-2.06-9.86-4.22-12.59,2.93c-14.76,38.73-36.47,75.12-41.5,117.12
		C600.52,556.64,598.31,577.36,595.89,598.94z"/>
	<path class="st3" d="M972.7,236.07c14.86-0.18,25.14,9.21,25.35,23.15c0.23,15.97-13.4,29.83-29.59,30.1
		c-14.44,0.24-22.29-8.69-22.21-25.25C946.33,247.58,957.03,236.26,972.7,236.07z"/>
	<g>
		<path class="st3" d="M1240.29,559.18h14.94c6.99,0.02,10.48,3.13,10.48,9.32c0,1.44-0.19,3.05-0.58,4.83l-4.28,20.25
			c-0.94,4.41-3.37,7.53-7.3,9.35c2.42,1.42,3.63,3.6,3.63,6.54c0,0.87-0.1,1.8-0.31,2.81c-2.01,9.39-7.53,14.09-16.55,14.11H1226
			L1240.29,559.18z M1239.67,607.73l-1.95,9.11h4.25c2.81,0,4.54-1.52,5.21-4.56c0.09-0.48,0.14-0.91,0.14-1.3
			c0-1.44-0.63-2.42-1.88-2.95c-0.46-0.21-1.36-0.31-2.71-0.31H1239.67z M1247.96,568.74l-6.27,29.39h3.05
			c1.35,0,2.29-0.09,2.84-0.27c1.92-0.71,3.11-2.14,3.56-4.28l4.28-20.25c0.14-0.59,0.21-1.12,0.21-1.58c0-2.01-1.14-3.02-3.43-3.02
			H1247.96z"/>
		<path class="st3" d="M1299.61,596.46l5.14-24.22c0.11-0.57,0.17-1.08,0.17-1.54c0-2.01-1.13-3.01-3.39-3.01h-0.07
			c-2.81,0.02-4.53,1.54-5.17,4.56l-3.49,16.44h-9.7l3.49-16.44c2.01-9.41,7.66-14.12,16.96-14.12c7.63,0,11.44,3.17,11.44,9.52
			c0,1.39-0.18,2.92-0.55,4.59l-11.51,54.16h-8.67l0.21-4.15c-2.72,3.47-6,5.22-9.83,5.24c-3.15,0-5.17-0.95-6.05-2.84
			c-0.88-1.9-1.32-3.73-1.32-5.52c0-1.23,0.15-2.55,0.45-3.94C1280.12,603.87,1287.41,597.62,1299.61,596.46z M1297.66,605.67
			c-5.78,1.37-9.12,4.2-10.04,8.5c-0.21,0.94-0.31,1.72-0.31,2.36c0,1.35,0.45,2.02,1.34,2.02c4.25-0.32,6.99-3.43,8.22-9.32
			L1297.66,605.67z"/>
		<path class="st3" d="M1349.58,606.84l5.89,19.56h-10.62l-4.83-17.81h-1.34l-3.8,17.81h-9.7l14.29-67.21h14.11
			c6.99,0.02,10.48,3.13,10.48,9.32c0,1.44-0.19,3.05-0.58,4.83l-4.49,21.1C1357.74,600.37,1354.6,604.51,1349.58,606.84z
			 M1347.15,568.74l-6.51,30.59h2.23c1.35,0,2.29-0.09,2.84-0.27c1.9-0.71,3.07-2.14,3.53-4.28l4.56-21.45
			c0.14-0.59,0.21-1.12,0.21-1.58c0-2.01-1.14-3.02-3.43-3.02H1347.15z"/>
		<path class="st3" d="M1389.27,559.18h14.94c6.99,0.02,10.48,3.13,10.48,9.32c0,1.44-0.19,3.05-0.58,4.83l-4.28,20.25
			c-0.94,4.41-3.37,7.53-7.3,9.35c2.42,1.42,3.63,3.6,3.63,6.54c0,0.87-0.1,1.8-0.31,2.81c-2.01,9.39-7.53,14.09-16.55,14.11h-14.32
			L1389.27,559.18z M1388.65,607.73l-1.95,9.11h4.25c2.81,0,4.54-1.52,5.21-4.56c0.09-0.48,0.14-0.91,0.14-1.3
			c0-1.44-0.63-2.42-1.88-2.95c-0.46-0.21-1.36-0.31-2.71-0.31H1388.65z M1396.94,568.74l-6.27,29.39h3.05
			c1.35,0,2.29-0.09,2.84-0.27c1.92-0.71,3.11-2.14,3.56-4.28l4.28-20.25c0.14-0.59,0.21-1.12,0.21-1.58c0-2.01-1.14-3.02-3.43-3.02
			H1396.94z"/>
		<path class="st3" d="M1439.03,559.18h25.15l-2.02,9.56h-15.45l-6.44,30.25h13.29l-2.02,9.59h-13.29l-1.78,8.26h15.45l-2.02,9.56
			h-25.15L1439.03,559.18z"/>
		<path class="st3" d="M1495.51,606.84l5.89,19.56h-10.62l-4.83-17.81h-1.34l-3.8,17.81h-9.7l14.29-67.21h14.11
			c6.99,0.02,10.48,3.13,10.48,9.32c0,1.44-0.19,3.05-0.58,4.83l-4.49,21.1C1503.68,600.37,1500.54,604.51,1495.51,606.84z
			 M1493.08,568.74l-6.51,30.59h2.23c1.35,0,2.29-0.09,2.84-0.27c1.9-0.71,3.07-2.14,3.53-4.28l4.56-21.45
			c0.14-0.59,0.21-1.12,0.21-1.58c0-2.01-1.14-3.02-3.43-3.02H1493.08z"/>
		<path class="st3" d="M1562.12,572.24c2.01-9.41,7.65-14.12,16.92-14.12c7.65,0,11.48,3.19,11.48,9.56c0,1.37-0.18,2.89-0.55,4.56
			l-3.49,16.44h-9.7l3.5-16.44c0.11-0.55,0.17-1.05,0.17-1.51c0-2.01-1.14-3.03-3.43-3.05h-0.07c-2.79,0-4.5,1.52-5.14,4.56
			l-2.43,11.37c-0.21,0.91-0.31,1.82-0.31,2.71c0,4.11,2.18,7.67,6.54,10.69c4.04,3.4,6.06,7.5,6.06,12.3c0,1.3-0.15,2.65-0.45,4.04
			c-2.01,9.43-7.65,14.15-16.92,14.15c-7.65-0.02-11.48-3.21-11.48-9.56c0-1.39,0.18-2.92,0.55-4.59l0.99-4.73h9.7l-0.99,4.73
			c-0.11,0.55-0.17,1.05-0.17,1.51c0,2.03,1.15,3.05,3.46,3.05c2.81,0,4.53-1.52,5.17-4.56c0.09-0.39,0.14-0.78,0.14-1.16
			c0-2.97-2.26-6.37-6.78-10.21c-3.88-3.27-5.82-7.54-5.82-12.81c0-1.67,0.19-3.45,0.58-5.34L1562.12,572.24z"/>
		<path class="st3" d="M1615,559.18h9.7l-8.46,39.84h8.46l8.46-39.84h9.7l-14.29,67.21h-9.7l3.77-17.78h-8.46l-3.77,17.78h-9.7
			L1615,559.18z"/>
		<path class="st3" d="M1681.45,613.35c-2.01,9.41-7.66,14.13-16.96,14.15c-7.63,0-11.44-3.19-11.44-9.56c0-1.37,0.18-2.9,0.55-4.59
			l8.74-41.11c2.01-9.41,7.65-14.12,16.92-14.12c7.65,0,11.48,3.19,11.48,9.56c0,1.37-0.18,2.89-0.55,4.56L1681.45,613.35z
			 M1680.49,572.24c0.11-0.55,0.17-1.05,0.17-1.51c0-2.01-1.14-3.03-3.43-3.05h-0.07c-2.79,0-4.5,1.52-5.14,4.56l-8.74,41.11
			c-0.11,0.57-0.17,1.08-0.17,1.54c0,2.01,1.14,3.01,3.43,3.01c2.83,0,4.57-1.52,5.21-4.56L1680.49,572.24z"/>
		<path class="st3" d="M1715.21,559.18h14.11c6.99,0.02,10.48,3.13,10.48,9.32c0,1.44-0.19,3.05-0.58,4.83l-4.49,21.1
			c-1.46,6.94-5.5,11.42-12.13,13.43c-1.58,0.48-3.78,0.72-6.61,0.72h-1.58l-3.8,17.81h-9.7L1715.21,559.18z M1722.89,568.74
			l-6.44,30.25h2.23c1.35,0,2.3-0.09,2.84-0.27c1.9-0.71,3.07-2.14,3.53-4.28l4.49-21.1c0.14-0.59,0.21-1.12,0.21-1.58
			c0-2.01-1.14-3.02-3.43-3.02H1722.89z"/>
	</g>
	<path class="st3" d="M155.69,440.94c-4.56,3.57-7.28,5.71-11.53,9.03c20.55,20.46,16.87,44.3,8.51,68.06
		c-9.8,27.84,2.85,47.53,23.82,63.57c13.1,10.02,27.97,17.85,41.23,26.15c-24.13,1.27-47.06-13.93-90.74-61.97
		c-2.84,4.55-5.59,8.93-9.63,15.4c0.07-24.49,5.05-32,24.49-40.28c10.59-4.51,11.4-20.44,3.01-35.06
		c-19.8-34.52-40.41-68.7-57.87-104.33c-7.44-15.17-12.18-34.07-10.4-50.47c2.54-23.38,9.59-47.17,19.5-68.68
		c11.72-25.42,35.55-40.13,63.21-46.1c27.01-5.83,54.63-8.89,81.92-13.54c9.57-1.63,20.36-2.26,28.04-7.15
		c8.26-5.26,16.91-14.12,19.28-22.97c3.37-12.54,7.88-14.55,20.12-12.57c29.68,4.81,46.94,22.46,57.43,48.33
		c1.93,4.76,3.64,9.6,6.45,17.05c2.16-7.49,3.49-12.11,5.47-18.98c26.33,30.61,2.36,55.16-3.9,78.31
		c-10.03-1.06-19.24-3.8-27.89-2.6c-21.55,2.99-41.24,0.51-61.91-7.38c-38.57-14.73-77.36-6.6-115.4,4.68
		c27.68,2.21,55.39-10.8,86.21,2.13c-6.38,13.7-12.49,26.84-18.6,39.97c0.88,0.06,1.75,0.11,2.63,0.17
		c-0.69,6.63,0.54,14.32-2.54,19.63c-4.38,7.57-10.7,15.96-18.37,19.44c-17.01,7.71-18.06,20.74-16.52,35.42
		c1.63,15.53,5.42,28.91,21.44,38.37c15.35,9.06,27.53,23.12,41.68,34.3c4.51,3.56,10.66,6.24,16.39,7
		c10.99,1.45,22.2,1.24,35.52,1.82c-3.69,7.38-5.94,11.86-8.7,17.37c23.85-4.03,46.43-7.85,73.51-12.42
		c-7.19-5.32-10.24-7.58-13.78-10.21c1.93-3.12,3.99-6.43,6.29-10.13c-2.23-1.31-3.77-2.97-4.79-2.7c-8.2,2.15-16.53,4.12-24.4,7.17
		c-20.44,7.91-37.79,2.8-43.57-11.74c21.62-7.59,43.28-15.21,64.95-22.82c-0.06-1.51-0.13-3.01-0.19-4.52
		c-8.5-1.44-17-2.89-27.13-4.61c0.24-3,0.6-7.33,1.02-12.59c12.85,4.23,24.39,8.02,32.24,10.6c9.18,12.69,16.67,23.03,25.08,34.65
		c-17.91,14.57-11.54,33.02-7.11,51.82c3.63,15.4,6.93,31.19,7.5,46.91c1,28.09-30.21,55.88-58.91,53.49
		c-4.9-0.41-9.89-3.92-14.14-6.95c-26.86-19.12-54.04-35.86-87.97-42.99c-18.28-3.84-35.86-17.51-50.02-30.6
		c-7.51-6.94-10.04-22.24-9.55-33.54c1.04-24.29,6.22-48.38,8.24-72.67c0.95-11.4-0.08-23.38-2.74-34.53
		c-3.96-16.58-17.76-26.16-35.04-24.59c-5.71,0.52-13.07,5.09-15.98,9.92c-10.86,18.02-7.37,37.99,8.53,55.67
		C144.33,432.42,149.87,436.06,155.69,440.94z"/>
	<path class="st3" d="M295.65,369.76c4.62-3.9,8.91-7.53,17.01-14.37c-14.71,0.85-25.44,1.48-38.83,2.25
		c21.95-19.73,55.02-25.08,80.54-15C336.62,372.51,330.05,386.64,295.65,369.76z"/>
	<path class="st3" d="M381.84,374.9c-13.17-18.45-11.81-25.78,8.94-39.02C387.52,350.11,384.93,361.44,381.84,374.9z"/>
</g>
</svg>
