<?xml version="1.0" encoding="utf-8"?>
<!-- Generator: Adobe Illustrator 25.2.1, SVG Export Plug-In . SVG Version: 6.00 Build 0)  -->
<svg version="1.1" id="Camada_1" xmlns="http://www.w3.org/2000/svg" xmlns:xlink="http://www.w3.org/1999/xlink" x="0px" y="0px"
	 viewBox="0 0 1341.6 606" style="enable-background:new 0 0 1341.6 606;" xml:space="preserve">
<style type="text/css">
	.st0{fill:#FFFFFF;}
	.st1{enable-background:new    ;}
	.st2{display:none;}
	.st3{display:inline;}
</style>
<g id="Camada_1_1_">
	<g id="Camada_2_1_">
		<path class="st0" d="M513.3,394.5c-6.2,4.3-12,9.2-18.6,12.9c-37.9,21-73.9,0.6-75.8-41.8c-1.7-37.2,10.9-70.8,24.5-104.4
			c7.4-18.2,15.7-36,23.6-53.9c28.3,5.5,49.2,31.2,30.1,58.9c-12.9,18.7-23.1,39.6-31.7,60.6c-6.1,14.8-9.2,31.3-10.4,47.3
			c-1.1,15.9,7.5,21.3,23.2,16.2c21.2-7,37.5-21.5,46.6-40.6c12.4-26,21.4-53.4,31.6-80.4c9.5-25.2,18.6-50.5,28.3-76.9
			c16,4.3,28.4,13.2,36.5,26.3c4.5,7.2,8,6.7,14.8,4.2c11.5-4.2,23.3-9.3,35.3-10.2c28.2-2.2,41.6,9.6,45.2,37.3
			c3,23.6-2.7,46-10.3,68c-2.2,6.5-5,12.7-7.6,19.1c-6.6,16.1-5.4,17.7,15.2,17.8c0-4,0-8,0-12c0.8-53.4,25.3-94.9,67.1-127.9
			c7.5-5.9,13.8-7.5,20.4,1.6c1.6,2.2,8.4,3.8,10.5,2.3c16-10.8,32.8-12.7,49.2-2.9c18.6,11.1,23.7,30,25.5,49.8
			c2.9,32-7.7,60.4-25,87c-3.1,4.8-6.1,9.6-10.3,16c4.8,1.2,8.5,2.9,12.3,2.9c5.8,0,11.6-0.8,17.3-1.8c20.2-3.7,20.8-4.5,20-24.2
			c-2.3-51.7,14.7-94.7,60.4-123.9c15.4-9.8,32.3-16.2,51.4-15.5c15.3,0.5,27.9,5.9,38.1,16.8c20.4,21.6,20.6,67.2,0.5,88.5
			c-10.4,11-40.4,13.1-51.7,3.2c-1.5-1.3-1.1-6.1-0.1-8.6c4.5-11.2,10.4-22,14.3-33.5c5.3-15.7-3.6-24.7-20.1-20.4
			c-6.9,1.8-14.1,5-19.5,9.5c-21.8,18.3-36.8,41-41.8,69c-6.9,37.8,23.2,67,61.8,59.9c28.2-5.2,50-21.8,71-39.4
			c2.6-2.2,3.4-7.4,3.7-11.2c3.2-55,26.8-98.5,76.7-125.8c22.9-12.5,48.3-15.3,72.4-1.6c13.6,7.8,11.5-6.2,16.7-9.9
			c27.4,10.9,46.1,34,27.7,59.9c-14,19.7-24.7,42.3-33.2,64.9c-6.1,16.2-7.9,34.5-8.6,51.9c-0.5,12.2,8.4,16.7,18.9,9.5
			c13.3-9.3,24.8-21.3,35.5-33.4c6.4-7.3,9.6-17.2,14.5-25.8c1.4-2.5,3.7-4.4,8.2-5.4c0,2.1,0.5,4.3-0.1,6.2
			c-8.1,27-20.8,51.5-42.1,71c-23,20.9-47.3,17.5-64.1-8.5c-1.4-2.1-2.9-4.2-5.5-7.8c-16.4,23.1-38.9,32.6-65.8,29.2
			c-28.6-3.7-40.5-25.1-48.8-51.6c-4.2,4.3-6.8,7.1-9.6,9.9c-21.2,21.3-44.4,39.9-76.3,41.9c-29.5,1.8-54.4-7.9-70.9-33
			c-5.3-8.1-9.4-8.7-17.2-3.3c-18.4,12.8-39,15.7-61.1,12c-4.1-0.6-9.1,1.9-13.1,4.1c-10.4,5.8-19.6,14.4-30.7,17.8
			c-30.4,9.1-57.7-4.1-69.5-33.8c-5.1-13-14.9-11.9-24.9-13.8c-9.8-2-14.2,2.9-19.4,10.1c-21,28.7-48,47.2-86.5,43.1
			c-14.6-1.6-24.5-9-28.4-23.1c-3.3-11.9,2.9-26.6,14.7-34.7c17.3-11.9,37.2-14.1,57.7-13.9c21,0.2,22,0.2,27.5-19.1
			c5.3-18.8,8.4-38.3,12.1-57.5c0.6-3.4-0.5-7.2-0.9-12.2c-35.7,8.3-69,15.7-85.8,52.3c-31.8,69.1-65.4,137.4-98.4,205.9
			c-2,4.2-4.7,8.1-9.2,11.4c0.2-23.1,8.5-44.4,14.6-66.1c6.2-22,13.2-43.8,19.8-65.7C514.8,395.3,514.1,394.9,513.3,394.5z
			 M1096.7,348.5c-0.1,38.5,18.2,55.2,52.7,48.1c19.7-4,33.9-21,34.1-40.4c0.1-7.9,0-16,1.9-23.6c4.8-19.9,10.3-39.6,16.1-59.1
			c3.4-11.6-0.4-19.9-12.7-21.1c-9.4-0.9-19.5-0.3-28.5,2.4C1133.1,262.7,1093,308.3,1096.7,348.5z M773.7,285.1
			c-22.4,24-32.5,49.4-29.2,79.4c1.5,13.4,7.5,23.6,20.8,28.9c13.8,5.6,25.7,0.8,37.2-6.3c5.8-3.6,6.9-7.7,0.7-12.3
			c-16.2-12-23-29-25.5-47.9C775.8,314.1,775.1,301,773.7,285.1z M850.9,292.5c-1.3-7.8-2.1-15.7-4.2-23.2
			c-2.7-9.9-6.8-10.8-14.6-4.1c-19.5,17-28.2,63.1-15.7,85.7c1.7,3,5.5,7.2,8,7c3.2-0.3,7.3-3.8,9-7
			C843.6,332.7,850.8,313.7,850.9,292.5z M643,362.8c-6,0.6-11.4,0.3-16.2,1.9c-11.5,3.9-22.9,8.4-33.9,13.5c-2.2,1-3.4,5.6-3.6,8.7
			c-0.1,1.1,3.8,3.2,6.1,3.6C612.9,393.1,635.2,380.6,643,362.8z"/>
		<path class="st0" d="M144.2,500.5c-22.2-3.4-32.2-15.9-31.3-35.5c3.1-63.5,18.9-124.1,43.1-182.9c16.1-39.3,31.3-78.9,47.5-119.9
			c15.7,4.4,31.9,11.3,38.7,28.4c2.9,7.3,1,18-2.2,25.8c-11.1,27-23.6,53.5-36,80c-3.7,7.9-2.1,11,6.5,13.7
			c51.4,16.2,94.8,1.3,132.8-32.7c29.7-26.6,51-58.8,63.5-96.4c8.3-24.8,2.3-38.7-23-48.6c-38.8-15.3-79-16-119-5.8
			c-59.8,15.1-112.4,42.8-154.3,88.1c-4.1,4.4-7.1,5.8-12.3,1.2c-23.3-20-24.5-48.1-1.1-67.3c53.7-44.1,116.9-64.4,186-69.1
			c35.1-2.4,70-0.4,102.8,13.6c11.6,5,22.9,11.3,33,18.7c20.2,14.8,27.9,35.6,22.8,59.3c-3.4,15.3-8.8,30.9-16.8,44.3
			c-17,28.4-34.8,56.9-61.5,77.9c-47.6,37.4-99.9,52.7-159.3,28.2c-4.9-2-9.6-4.1-12.3,2.9c-14.4,37.9-35.7,73.4-40.6,114.5
			C148.8,459.1,146.6,479.4,144.2,500.5z"/>
		<path class="st0" d="M512.7,145.7c14.5-0.2,24.6,9,24.8,22.6c0.2,15.6-13.1,29.2-28.9,29.4c-14.1,0.2-21.8-8.5-21.7-24.7
			C486.9,157,497.3,145.9,512.7,145.7z"/>
		<g class="st1">
			<path class="st0" d="M774.3,461.6h14.6c6.8,0,10.2,3.1,10.2,9.1c0,1.4-0.2,3-0.6,4.7l-4.2,19.8c-0.9,4.3-3.3,7.4-7.1,9.1
				c2.4,1.4,3.6,3.5,3.6,6.4c0,0.8-0.1,1.8-0.3,2.7c-2,9.2-7.4,13.8-16.2,13.8h-14L774.3,461.6z M773.7,509.1l-1.9,8.9h4.2
				c2.7,0,4.4-1.5,5.1-4.5c0.1-0.5,0.1-0.9,0.1-1.3c0-1.4-0.6-2.4-1.8-2.9c-0.4-0.2-1.3-0.3-2.6-0.3H773.7z M781.8,471l-6.1,28.7h3
				c1.3,0,2.2-0.1,2.8-0.3c1.9-0.7,3-2.1,3.5-4.2l4.2-19.8c0.1-0.6,0.2-1.1,0.2-1.5c0-2-1.1-2.9-3.3-2.9H781.8z"/>
			<path class="st0" d="M829.5,498.1l5-23.7c0.1-0.6,0.2-1.1,0.2-1.5c0-2-1.1-2.9-3.3-2.9h-0.1c-2.7,0-4.4,1.5-5.1,4.5l-3.4,16.1
				h-9.5l3.4-16.1c2-9.2,7.5-13.8,16.6-13.8c7.5,0,11.2,3.1,11.2,9.3c0,1.4-0.2,2.9-0.5,4.5l-11.3,53h-8.5l0.2-4.1
				c-2.7,3.4-5.9,5.1-9.6,5.1c-3.1,0-5.1-0.9-5.9-2.8c-0.9-1.9-1.3-3.7-1.3-5.4c0-1.2,0.1-2.5,0.4-3.9
				C810.5,505.3,817.6,499.2,829.5,498.1z M827.6,507.1c-5.6,1.3-8.9,4.1-9.8,8.3c-0.2,0.9-0.3,1.7-0.3,2.3c0,1.3,0.4,2,1.3,2
				c4.2-0.3,6.8-3.3,8-9.1L827.6,507.1z"/>
			<path class="st0" d="M875.6,508.2l5.8,19.1H871l-4.7-17.4H865l-3.7,17.4h-9.5l14-65.7h13.8c6.8,0,10.2,3.1,10.2,9.1
				c0,1.4-0.2,3-0.6,4.7l-4.4,20.6C883.6,501.9,880.5,505.9,875.6,508.2z M873.3,471l-6.4,29.9h2.2c1.3,0,2.2-0.1,2.8-0.3
				c1.9-0.7,3-2.1,3.5-4.2l4.5-21c0.1-0.6,0.2-1.1,0.2-1.5c0-2-1.1-2.9-3.3-2.9H873.3z"/>
			<path class="st0" d="M911.7,461.6h14.6c6.8,0,10.2,3.1,10.2,9.1c0,1.4-0.2,3-0.6,4.7l-4.2,19.8c-0.9,4.3-3.3,7.4-7.1,9.1
				c2.4,1.4,3.6,3.5,3.6,6.4c0,0.8-0.1,1.8-0.3,2.7c-2,9.2-7.4,13.8-16.2,13.8h-14L911.7,461.6z M911.1,509.1l-1.9,8.9h4.2
				c2.7,0,4.4-1.5,5.1-4.5c0.1-0.5,0.1-0.9,0.1-1.3c0-1.4-0.6-2.4-1.8-2.9c-0.4-0.2-1.3-0.3-2.6-0.3H911.1z M919.2,471l-6.1,28.7h3
				c1.3,0,2.2-0.1,2.8-0.3c1.9-0.7,3-2.1,3.5-4.2l4.2-19.8c0.1-0.6,0.2-1.1,0.2-1.5c0-2-1.1-2.9-3.3-2.9H919.2z"/>
			<path class="st0" d="M957.6,461.6h24.6l-2,9.3h-15.1l-6.3,29.6h13l-2,9.4h-13l-1.7,8.1h15.1l-2,9.3h-24.6L957.6,461.6z"/>
			<path class="st0" d="M1010.1,508.2l5.8,19.1h-10.4l-4.7-17.4h-1.3l-3.7,17.4h-9.5l14-65.7h13.8c6.8,0,10.2,3.1,10.2,9.1
				c0,1.4-0.2,3-0.6,4.7l-4.4,20.6C1018.1,501.9,1015,505.9,1010.1,508.2z M1007.7,471l-6.4,29.9h2.2c1.3,0,2.2-0.1,2.8-0.3
				c1.9-0.7,3-2.1,3.5-4.2l4.5-21c0.1-0.6,0.2-1.1,0.2-1.5c0-2-1.1-2.9-3.3-2.9H1007.7z"/>
			<path class="st0" d="M1069.7,474.4c2-9.2,7.5-13.8,16.5-13.8c7.5,0,11.2,3.1,11.2,9.3c0,1.3-0.2,2.8-0.5,4.5l-3.4,16.1h-9.5
				l3.4-16.1c0.1-0.5,0.2-1,0.2-1.5c0-2-1.1-3-3.3-3h-0.1c-2.7,0-4.4,1.5-5,4.5l-2.4,11.1c-0.2,0.9-0.3,1.8-0.3,2.6
				c0,4,2.1,7.5,6.4,10.4c4,3.3,5.9,7.3,5.9,12c0,1.3-0.1,2.6-0.4,4c-2,9.2-7.5,13.8-16.5,13.8c-7.5,0-11.2-3.1-11.2-9.3
				c0-1.4,0.2-2.9,0.5-4.5l1-4.6h9.5l-1,4.6c-0.1,0.5-0.2,1-0.2,1.5c0,2,1.1,3,3.4,3c2.7,0,4.4-1.5,5.1-4.5c0.1-0.4,0.1-0.8,0.1-1.1
				c0-2.9-2.2-6.2-6.6-10c-3.8-3.2-5.7-7.4-5.7-12.5c0-1.6,0.2-3.4,0.6-5.2L1069.7,474.4z"/>
			<path class="st0" d="M1118.7,461.6h9.5l-8.3,39h8.3l8.3-39h9.5l-14,65.7h-9.5l3.7-17.4h-8.3l-3.7,17.4h-9.5L1118.7,461.6z"/>
			<path class="st0" d="M1180.9,514.6c-2,9.2-7.5,13.8-16.6,13.8c-7.5,0-11.2-3.1-11.2-9.3c0-1.3,0.2-2.8,0.5-4.5l8.5-40.2
				c2-9.2,7.5-13.8,16.5-13.8c7.5,0,11.2,3.1,11.2,9.3c0,1.3-0.2,2.8-0.5,4.5L1180.9,514.6z M1180,474.4c0.1-0.5,0.2-1,0.2-1.5
				c0-2-1.1-3-3.3-3h-0.1c-2.7,0-4.4,1.5-5,4.5l-8.5,40.2c-0.1,0.6-0.2,1.1-0.2,1.5c0,2,1.1,2.9,3.3,2.9c2.8,0,4.5-1.5,5.1-4.5
				L1180,474.4z"/>
			<path class="st0" d="M1211.2,461.6h13.8c6.8,0,10.2,3.1,10.2,9.1c0,1.4-0.2,3-0.6,4.7l-4.4,20.6c-1.4,6.8-5.4,11.2-11.9,13.1
				c-1.5,0.5-3.7,0.7-6.5,0.7h-1.5l-3.7,17.4h-9.5L1211.2,461.6z M1218.7,471l-6.3,29.6h2.2c1.3,0,2.2-0.1,2.8-0.3
				c1.9-0.7,3-2.1,3.4-4.2l4.4-20.6c0.1-0.6,0.2-1.1,0.2-1.5c0-2-1.1-2.9-3.3-2.9H1218.7z"/>
		</g>
	</g>
</g>
<g id="Camada_3">
	<path class="st0" d="M888.9,531.4c-1.2,0.9-1.9,1.5-3,2.3c5.3,5.2,4.3,11.4,2.2,17.5c-2.5,7.1,0.7,12.2,6.1,16.3
		c3.4,2.6,7.2,4.6,10.6,6.7c-6.2,0.3-12.1-3.6-23.3-15.9c-0.7,1.2-1.4,2.3-2.5,4c0-6.3,1.3-8.2,6.3-10.3c2.7-1.2,2.9-5.2,0.8-9
		c-5.1-8.8-10.4-17.6-14.9-26.8c-1.9-3.9-3.1-8.7-2.7-13c0.7-6,2.5-12.1,5-17.6c3-6.5,9.1-10.3,16.2-11.8c6.9-1.5,14-2.3,21-3.5
		c2.5-0.4,5.2-0.6,7.2-1.8c2.1-1.3,4.3-3.6,5-5.9c0.9-3.2,2-3.7,5.2-3.2c7.6,1.2,12,5.8,14.7,12.4c0.5,1.2,0.9,2.5,1.7,4.4
		c0.5-1.9,0.9-3.1,1.4-4.9c6.8,7.8,0.6,14.2-1,20.1c-2.6-0.3-4.9-1-7.2-0.7c-5.5,0.8-10.6,0.1-15.9-1.9c-9.9-3.8-19.8-1.7-29.6,1.2
		c7.1,0.6,14.2-2.8,22.1,0.5c-1.6,3.5-3.2,6.9-4.8,10.2c0.2,0,0.5,0,0.7,0c-0.2,1.7,0.1,3.7-0.6,5c-1.1,1.9-2.8,4.1-4.7,5
		c-4.4,2-4.6,5.3-4.2,9.1c0.4,4,1.4,7.4,5.5,9.8c3.9,2.3,7.1,5.9,10.7,8.8c1.2,0.9,2.7,1.6,4.2,1.8c2.8,0.4,5.7,0.3,9.1,0.5
		c-1,1.9-1.5,3-2.2,4.5c6.1-1,11.9-2,18.9-3.2c-1.8-1.4-2.6-1.9-3.5-2.6c0.5-0.8,1-1.7,1.6-2.6c-0.6-0.3-1-0.8-1.2-0.7
		c-2.1,0.5-4.2,1.1-6.3,1.8c-5.2,2-9.7,0.7-11.2-3c5.5-2,11.1-3.9,16.7-5.8c0-0.4,0-0.8-0.1-1.2c-2.2-0.4-4.4-0.7-7-1.2
		c0.1-0.8,0.1-1.9,0.3-3.2c3.3,1.1,6.3,2.1,8.3,2.7c2.4,3.3,4.3,5.9,6.4,8.9c-4.6,3.7-3,8.5-1.8,13.3c0.9,4,1.8,8,1.9,12
		c0.3,7.2-7.8,14.3-15.1,13.7c-1.3-0.1-2.5-1-3.6-1.8c-6.9-4.9-13.9-9.2-22.6-11c-4.7-1-9.2-4.5-12.8-7.8c-1.9-1.8-2.6-5.7-2.4-8.6
		c0.3-6.2,1.6-12.4,2.1-18.6c0.2-2.9,0-6-0.7-8.9c-1-4.2-4.6-6.7-9-6.3c-1.5,0.1-3.3,1.3-4.1,2.5c-2.8,4.6-1.9,9.8,2.2,14.3
		C886,529.2,887.4,530.1,888.9,531.4z"/>
	<path class="st0" d="M924.8,513.1c1.2-1,2.3-1.9,4.4-3.7c-3.8,0.2-6.5,0.4-10,0.6c5.6-5.1,14.1-6.4,20.7-3.8
		C935.3,513.8,933.6,517.4,924.8,513.1z"/>
	<path class="st0" d="M946.9,514.4c-3.4-4.7-3-6.6,2.3-10C948.3,508,947.7,511,946.9,514.4z"/>
</g>
<g id="Camada_2_2_" class="st2">
	<g id="Camada_1_2_" class="st3">
		<circle class="st0" cx="1067.8" cy="170" r="190.6"/>
		<g>
			<g>
				<path class="st0" d="M1018.1,177.2c4.7,1.5,9.3,3.2,13.9,4.4c9.5,2.5,19.1,4.1,29,3.3c3-0.3,4.8-1.5,6.2-4.1
					c2.7-5.1,5.7-10.1,8.5-15.2c2.4-4.4,5.9-5.9,10.9-4.6c5.2,1.3,10.3,2.7,13.5,7.4c0.9,1.3,1.2,3.7,2.2,3.9c1.8,0.3,4-0.4,5.9-1
					c16.2-5,32.8-7.2,49.7-6.9c22.9,0.4,44.7-4.3,65.9-12.4c8.2-3.1,6.2-2.9,9.7,3.9c2.9,5.8,6.5,11.2,9.8,16.8c0.5,0.9,1.2,1.8,2,3
					c-3.3,1-6.1,2-9,2.9c-17.8,5.4-35.6,10.7-54.2,13.2c-6.3,0.9-12.5,1.5-18.8,2.1c-7.5,0.6-14-1.8-19.4-7
					c-4.4-4.2-9.3-7.3-15.9-6.9c-5.7,0.4-8.7,2.6-10,8.2c-0.2,1.1-0.6,2.2-1.1,3.8c-1.5-1-2.6-1.8-3.8-2.6
					c-6.2-4.5-16.8-2.5-20.6,4.1c-1.5,2.5-2.6,5.2-3.6,7.9c-7.6,20.6-14.8,41.3-18.5,63c-2.5,14.5-4.9,29-6.9,43.6
					c-0.8,5.9-0.5,11.9-0.8,17.9c-0.1,2.2-0.3,4.4-0.7,6.5c-0.6,3.2-2.3,4.8-5.7,4.7c-8.8-0.2-17.3-2.4-25.5-5.5
					c-2.2-0.8-3.5-2.8-3.4-5.2c0.1-5,0-10,0.7-14.9c1.8-12.8,3.6-25.6,6-38.3c4.9-25.1,12.7-49.3,23.3-72.7c0.2-0.5,0.4-0.9,0.6-1.4
					c1.1-2.4,0.7-3.5-2.3-3.9c-14.4-1.7-26.2-9-37.3-17.4C1018.3,177.8,1018.3,177.5,1018.1,177.2z M1204.4,180.2c0-0.1,0-0.3,0-0.4
					c1.8-0.6,3.8-1,5.5-1.8c2-0.9,4.1-1.9,5.5-3.4c0.9-1,1.3-3.3,0.7-4.6c-0.5-1.1-2.5-1.8-4-2c-1.9-0.2-3.9,0-5.7,0.5
					c-11.1,3-22.2,5.7-33.8,6.7c-1.1,0.1-2.5,0.1-3.2,0.7c-2,1.9-4.3,1.2-6.5,1.5c-5.4,0.6-10.9,1.1-16.3,2.1
					c-3.7,0.7-3.9,2-1.6,4.9c2.9,3.7,7,5.6,11.5,6.1c5.1,0.5,10.4,0.9,15.5,0.4c18.6-1.8,36.6-6.5,54.4-11.8c1.2-0.4,2.4-1,3.6-1.5
					c-0.1-0.2-0.2-0.5-0.3-0.7c-4.7,1.1-9.4,2.3-14.1,3.4c-4.7,1.1-9.5,2.4-14.2,3.5c-4.9,1.1-9.7,2.2-14.6,3.1
					c-4.7,0.8-9.4,1.4-14.1,2c-0.1-0.3-0.1-0.6-0.1-0.9c11.8-2.7,24-3.5,35.4-8.2C1206.7,179.9,1205.5,180,1204.4,180.2z
					 M1139.4,176.9c-6.2-4.9-6.6-5-14.7-4.4c-0.7,0-1.4-0.2-2.1-0.3c-2.2-0.2-4.5-0.8-6.5-0.3c-4,0.8-7.9,2-11.7,3.3
					c-4.8,1.5-7.9,5.9-8.2,11.5c1.3-0.3,2.7-0.3,3.8-1c4-2.4,8-2,12-0.3c2.2,1,3.5,0.3,4.7-1.7c3.5-5.6,8.8-7.4,15.2-6.2
					c1.8,0.3,3.6,0.7,5.3,1.4c1.8,0.7,3,0.5,4-1.3c1.5-2.8,3.8-4.2,7.1-4.4c8.6-0.5,17.3-0.9,25.9-1.6c7.3-0.6,14.7-1,21.8-2.6
					c7.3-1.6,14.3-4.4,21.4-6.7c3.8-1.2,7.5-2.6,11.1-4.2c0.7-0.3,0.9-1.6,1.3-2.5c-0.8-0.2-1.7-0.6-2.5-0.6c-0.6,0-1.2,0.4-1.7,0.6
					c-10.8,5.2-22.4,7.9-34,10.5c-3.9,0.9-8,1.2-12.1,1.8c-0.2,0-0.4-0.3-0.6-0.5c0.8-0.4,1.6-0.8,3.1-1.5c-1.5-0.1-2.1-0.2-2.6-0.1
					c-7.5,0.8-15,1.7-22.5,2.5C1150,169.1,1143.3,170.3,1139.4,176.9z M1033.6,293.3c0.4,0.1,0.8,0.2,1.3,0.3
					c6.7-25.6,13.3-51.1,20-76.7c-0.4-0.1-0.9-0.2-1.3-0.3C1043.7,241.3,1037.7,267.1,1033.6,293.3z M1075.3,230.9
					c-8.6,21.5-11.6,44.1-13.9,66.8C1066.1,275.4,1070.7,253.1,1075.3,230.9z M1045.7,188.9c-0.1,0.2-0.2,0.5-0.3,0.7
					c0.8,0.4,1.6,1.1,2.5,1.2c3.3,0.7,6.7,1.3,10.1,2c2.7,0.5,3.6-0.9,3.8-3.3c-5.2-0.2-10.2-0.5-15.2-0.7
					C1046.3,188.7,1046,188.8,1045.7,188.9z M1050.4,322.6c-2-1.4-3.1-2.8-4.4-3c-1.9-0.2-3.5,1.2-3,3.2c0.3,1.2,2,2.7,3.1,2.7
					C1047.3,325.6,1048.5,324,1050.4,322.6z M1084.3,187.9c0-0.4,0-0.8,0-1.2c-1.1-0.7-2.3-2.2-3.3-2.1c-1.3,0.2-3.1,1.5-3.4,2.6
					c-0.4,1.7,0.9,3.5,3,3.1C1081.9,190.1,1083,188.8,1084.3,187.9z M1043.7,318.3c-0.4-0.2-0.8-0.4-1.1-0.5c-1,1.5-2.5,3-2.7,4.6
					c-0.2,1.4,1.2,3,1.9,4.4c0.6-0.1,1.1-0.2,1.7-0.3C1040.3,323.5,1041.8,320.8,1043.7,318.3z M1076.8,192.1
					c0.4-0.2,0.8-0.4,1.2-0.6c-0.6-1.4-1.8-2.8-1.7-4.2c0-1.4,1.2-2.8,1.9-4.3c-0.3-0.2-0.6-0.3-1-0.5c-0.8,1.5-2.3,3-2.3,4.5
					C1074.9,188.7,1076.1,190.4,1076.8,192.1z M1078.6,165.5c1.8-1.1,3.6-2.3,5.3-3.4C1081.8,160.4,1079.3,161.8,1078.6,165.5z"/>
				<path class="st0" d="M1021.5,142.3c-1.6,1.1-3.1,2.4-4.9,3.4c-9.9,5.5-19.4,0.1-19.9-11c-0.4-9.8,2.9-18.6,6.4-27.4
					c1.9-4.8,4.1-9.5,6.2-14.1c7.4,1.5,12.9,8.2,7.9,15.5c-3.4,4.9-6.1,10.4-8.3,15.9c-1.6,3.9-2.4,8.2-2.7,12.4s2,5.6,6.1,4.2
					c5.6-1.8,9.8-5.6,12.2-10.7c3.2-6.8,5.6-14,8.3-21.1c2.5-6.6,4.9-13.2,7.4-20.2c4.2,1.1,7.4,3.5,9.6,6.9
					c1.2,1.9,2.1,1.8,3.9,1.1c3-1.1,6.1-2.4,9.2-2.7c7.4-0.6,10.9,2.5,11.8,9.8c0.8,6.2-0.7,12.1-2.7,17.9c-0.6,1.7-1.3,3.3-2,5
					c-1.7,4.2-1.4,4.6,4,4.7c0-1,0-2.1,0-3.1c0.2-14,6.6-24.9,17.6-33.5c2-1.5,3.6-2,5.3,0.4c0.4,0.6,2.2,1,2.8,0.6
					c4.2-2.8,8.6-3.3,12.9-0.8c4.9,2.9,6.2,7.9,6.7,13.1c0.8,8.4-2,15.9-6.6,22.8c-0.8,1.2-1.6,2.5-2.7,4.2c1.2,0.3,2.2,0.8,3.2,0.8
					c1.5,0,3-0.2,4.5-0.5c5.3-1,5.5-1.2,5.2-6.3c-0.6-13.6,3.9-24.8,15.9-32.5c4-2.6,8.5-4.2,13.5-4.1c4,0.1,7.3,1.6,10,4.4
					c5.3,5.7,5.4,17.6,0.1,23.2c-2.7,2.9-10.6,3.5-13.6,0.8c-0.4-0.4-0.3-1.6,0-2.3c1.2-3,2.7-5.8,3.8-8.8c1.4-4.1-0.9-6.5-5.3-5.4
					c-1.8,0.5-3.7,1.3-5.1,2.5c-5.7,4.8-9.7,10.8-11,18.1c-1.8,9.9,6.1,17.6,16.2,15.7c7.4-1.4,13.1-5.7,18.6-10.3
					c0.7-0.6,0.9-1.9,1-3c0.8-14.4,7-25.9,20.1-33c6-3.3,12.7-4,19-0.4c3.6,2,3-1.6,4.4-2.6c7.2,2.9,12.1,8.9,7.3,15.7
					c-3.7,5.2-6.5,11.1-8.7,17c-1.6,4.2-2.1,9-2.2,13.6c-0.1,3.2,2.2,4.4,5,2.5c3.5-2.4,6.5-5.6,9.3-8.8c1.7-1.9,2.5-4.5,3.8-6.8
					c0.4-0.6,1-1.2,2.1-1.4c0,0.5,0.1,1.1,0,1.6c-2.1,7.1-5.4,13.5-11,18.6c-6,5.5-12.4,4.6-16.8-2.2c-0.4-0.6-0.8-1.1-1.4-2
					c-4.3,6.1-10.2,8.6-17.3,7.6c-7.5-1-10.6-6.6-12.8-13.5c-1.1,1.1-1.8,1.9-2.5,2.6c-5.6,5.6-11.6,10.5-20,11
					c-7.7,0.5-14.3-2.1-18.6-8.7c-1.4-2.1-2.5-2.3-4.5-0.9c-4.8,3.4-10.2,4.1-16,3.2c-1.1-0.2-2.4,0.5-3.4,1.1
					c-2.7,1.5-5.2,3.8-8.1,4.7c-8,2.4-15.1-1.1-18.2-8.9c-1.3-3.4-3.9-3.1-6.5-3.6s-3.7,0.8-5.1,2.6c-5.5,7.5-12.6,12.4-22.7,11.3
					c-3.8-0.4-6.4-2.4-7.5-6.1c-0.9-3.1,0.8-7,3.8-9.1c4.6-3.1,9.8-3.7,15.2-3.7c5.5,0,5.8,0,7.2-5c1.4-4.9,2.2-10,3.2-15.1
					c0.2-0.9-0.1-1.9-0.2-3.2c-9.4,2.2-18.1,4.1-22.5,13.7c-8.3,18.1-17.2,36-25.8,54c-0.5,1.1-1.2,2.1-2.4,3
					c0.1-6.1,2.2-11.7,3.8-17.3c1.6-5.8,3.5-11.5,5.2-17.2C1021.9,142.5,1021.7,142.4,1021.5,142.3z M1174.6,130.3
					c0,10.1,4.8,14.5,13.8,12.6c5.2-1.1,8.9-5.5,9-10.6c0-2.1,0-4.2,0.5-6.2c1.3-5.2,2.7-10.4,4.2-15.5c0.9-3-0.1-5.2-3.3-5.5
					c-2.5-0.2-5.1-0.1-7.5,0.6C1184.2,107.8,1173.7,119.7,1174.6,130.3z M1089.9,113.6c-5.9,6.3-8.5,13-7.7,20.8
					c0.4,3.5,2,6.2,5.5,7.6c3.6,1.5,6.8,0.2,9.8-1.7c1.5-1,1.8-2,0.2-3.2c-4.2-3.1-6-7.6-6.7-12.6
					C1090.4,121.2,1090.2,117.8,1089.9,113.6z M1110.1,115.6c-0.3-2-0.6-4.1-1.1-6.1c-0.7-2.6-1.8-2.8-3.8-1.1
					c-5.1,4.5-7.4,16.5-4.1,22.5c0.4,0.8,1.5,1.9,2.1,1.8c0.9-0.1,1.9-1,2.4-1.8C1108.2,126.1,1110.1,121.1,1110.1,115.6z
					 M1055.6,134c-1.6,0.2-3,0.1-4.2,0.5c-3,1-6,2.2-8.9,3.5c-0.6,0.3-0.9,1.5-1,2.3c0,0.3,1,0.9,1.6,0.9
					C1047.7,142,1053.5,138.7,1055.6,134z"/>
				<path class="st0" d="M924.7,170.2c-5.8-0.9-8.5-4.2-8.2-9.3c0.8-16.7,5-32.6,11.3-48c4.2-10.3,8.2-20.7,12.5-31.5
					c4.1,1.2,8.4,3,10.1,7.4c0.8,1.9,0.2,4.7-0.6,6.8c-2.9,7.1-6.2,14-9.5,21c-1,2.1-0.5,2.9,1.7,3.6c13.5,4.3,24.9,0.3,34.8-8.6
					c7.8-7,13.4-15.4,16.7-25.3c2.2-6.5,0.6-10.1-6-12.8c-10.2-4-20.7-4.2-31.2-1.5c-15.7,4-29.5,11.2-40.5,23.1
					c-1.1,1.2-1.8,1.5-3.2,0.3c-6.1-5.2-6.4-12.6-0.3-17.7c14.1-11.6,30.7-16.9,48.8-18.1c9.2-0.6,18.4-0.1,27,3.6
					c3.1,1.3,6,3,8.7,4.9c5.3,3.9,7.3,9.4,6,15.6c-0.9,4-2.3,8.1-4.4,11.6c-4.5,7.5-9.1,14.9-16.1,20.4
					c-12.5,9.8-26.2,13.8-41.8,7.4c-1.3-0.5-2.5-1.1-3.2,0.8c-3.8,9.9-9.4,19.3-10.6,30C925.9,159.3,925.3,164.6,924.7,170.2z"/>
				<path class="st0" d="M1052.9,44.8c-0.8,0.7-1.4,1.1-2.2,1.7c3.9,3.8,3.2,8.3,1.6,12.8c-1.8,5.2,0.5,8.9,4.5,11.9
					c2.5,1.9,5.2,3.3,7.7,4.9c-4.5,0.2-8.8-2.6-17-11.6c-0.5,0.9-1,1.7-1.8,2.9c0-4.6,0.9-6,4.6-7.6c2-0.8,2.1-3.8,0.6-6.6
					c-3.7-6.5-7.6-12.9-10.8-19.6c-1.4-2.8-2.3-6.4-1.9-9.5c0.5-4.4,1.8-8.8,3.6-12.9c2.2-4.8,6.7-7.5,11.8-8.6
					c5.1-1.1,10.2-1.7,15.3-2.5c1.8-0.3,3.8-0.4,5.2-1.3c1.6-1,3.2-2.6,3.6-4.3c0.6-2.4,1.5-2.7,3.8-2.4c5.6,0.9,8.8,4.2,10.8,9.1
					c0.4,0.9,0.7,1.8,1.2,3.2c0.4-1.4,0.7-2.3,1-3.6c4.9,5.7,0.4,10.3-0.7,14.7c-1.9-0.2-3.6-0.7-5.2-0.5c-4,0.6-7.7,0.1-11.6-1.4
					c-7.2-2.8-14.5-1.2-21.6,0.9c5.2,0.4,10.4-2,16.2,0.4c-1.2,2.6-2.3,5-3.5,7.5c0.2,0,0.3,0,0.5,0c-0.1,1.2,0.1,2.7-0.5,3.7
					c-0.8,1.4-2,3-3.4,3.6c-3.2,1.4-3.4,3.9-3.1,6.6c0.3,2.9,1,5.4,4,7.2c2.9,1.7,5.2,4.3,7.8,6.4c0.8,0.7,2,1.2,3.1,1.3
					c2.1,0.3,4.2,0.2,6.7,0.3c-0.7,1.4-1.1,2.2-1.6,3.2c4.5-0.8,8.7-1.5,13.8-2.3c-1.3-1-1.9-1.4-2.6-1.9c0.4-0.6,0.8-1.2,1.2-1.9
					c-0.4-0.2-0.7-0.6-0.9-0.5c-1.5,0.4-3.1,0.8-4.6,1.3c-3.8,1.5-7.1,0.5-8.2-2.2c4.1-1.4,8.1-2.9,12.2-4.3c0-0.3,0-0.6,0-0.9
					c-1.6-0.3-3.2-0.5-5.1-0.9c0.1-0.6,0.1-1.4,0.2-2.4c2.4,0.8,4.6,1.5,6,2c1.7,2.4,3.1,4.3,4.7,6.5c-3.4,2.7-2.2,6.2-1.3,9.7
					c0.7,2.9,1.3,5.8,1.4,8.8c0.2,5.3-5.7,10.5-11,10c-0.9-0.1-1.9-0.7-2.7-1.3c-5-3.6-10.1-6.7-16.5-8.1c-3.4-0.7-6.7-3.3-9.4-5.7
					c-1.4-1.3-1.9-4.2-1.8-6.3c0.2-4.6,1.2-9.1,1.5-13.6c0.2-2.1,0-4.4-0.5-6.5c-0.7-3.1-3.3-4.9-6.6-4.6c-1.1,0.1-2.4,0.9-3,1.9
					c-2,3.4-1.4,7.1,1.6,10.4C1050.7,43.2,1051.8,43.9,1052.9,44.8z"/>
				<path class="st0" d="M1188.6,220.2c1,3.2-0.5,4.8-2.3,6.5c-2.9,2.7-6,5.3-8.6,8.2c-4.3,4.8-11.5,4.6-15.1-0.8
					c-1.6-2.4-3.6-3.4-6.4-3c-6.1,0.8-12.3,1.3-17.3,5.7c-1.1,1-3.1,1.3-4.7,1.5c-1.8,0.2-2.6,0.8-3.3,2.4c-0.8,1.7-2,3.5-3.6,4.4
					c-3.1,1.7-5.1,4.1-6.7,7.1c-0.8,1.5-1.5,3-2.4,4.5c-2.1,3.4-2.3,6.6-0.8,10.4c2.5,6.2,0,11.6-5.9,14c-3.7,1.5-7.3,0.4-9.6-2.8
					c-3.3-4.7-0.9-16,7.5-15.9c2.3,0,4.1-1.1,5-3.2c2.8-6.6,5.5-13.3,8.3-19.9c0.7-1.7,0-2.2-1.7-2.5c-7.7-1.2-15.5-2.6-23.2-3.9
					c-0.4-0.1-0.7-0.2-1.1-0.8c2.1-0.2,4.1-0.5,6.1-0.6c6.7-0.3,13.4-0.6,20.2-0.7c2.4,0,3.8-0.8,4.6-2.9c2.5-6.3,5-12.6,7.5-18.9
					c0.5-1.4,1.1-2.7,1.6-4.1c0.3,0.1,0.5,0.1,0.8,0.2c-1.1,8.2-2.3,16.4-3.5,25.1c3.9,0,7.7,0.2,11.4,0c4.4-0.2,8.8-0.6,13-1.4
					c1.5-0.3,3.2-1.7,4.2-3c4.4-6,9.6-6.5,15-1.3c3.3,3.1,4.3,3.1,7.6,0C1186.2,223.2,1187.2,221.8,1188.6,220.2z M1108.1,279.8
					c3.8,0.1,7.5-2.8,8.3-6.6c0.8-3.8-1.4-8.5-4.8-9.7c-0.6-0.2-1.4-0.3-2-0.1c-3.9,1.4-6.8,3.9-7.8,8
					C1100.8,275.6,1104,279.7,1108.1,279.8z M1170.4,222.5c-4,0-7.9,3.5-8,7.2s3.8,7.2,8,7.1c4.3-0.1,7.9-3.3,7.9-7.1
					C1178.2,225.8,1174.5,222.5,1170.4,222.5z"/>
				<path class="st0" d="M1021.4,77.1c3.8,0,6.4,2.4,6.5,5.9c0.1,4.1-3.4,7.6-7.6,7.7c-3.7,0.1-5.7-2.2-5.7-6.5
					C1014.6,80,1017.3,77.1,1021.4,77.1z"/>
				<path class="st0" d="M1221.7,216.5c0.1-3.5,2.7-6.1,6.1-6.2c3.3,0,6.3,3.1,6.2,6.4c0,3.5-2.6,5.8-6.3,5.8
					C1224,222.5,1221.7,220.2,1221.7,216.5z"/>
				<path class="st0" d="M1107.9,330.3c-3.5,0-6.3-2.6-6.3-5.9c0-3.6,2.7-6.1,6.4-6.1c3.4,0,6.2,2.8,6.2,6.1
					C1114.1,327.6,1111.3,330.2,1107.9,330.3z"/>
				<path class="st0" d="M957.4,273.7c-0.5,3.6-2.4,5.1-4.8,6.2c-0.8,0.4-1.4,1.1-2,1.8c-1.5,1.7-2.6,3.8-4.3,5.1
					c-2.6,2-8.5-1-8.8-4.2c0-0.5,0.5-1.2,1-1.7c4.1-3.9,8.3-7.6,12.4-11.5c1.1-1.1,2-1.3,3,0C955.2,271,956.5,272.5,957.4,273.7z
					 M942.6,286c2.8,0,6.6-3.4,6.2-5.2c-0.3-1.3-1.3-2.6-2.4-3.6c-0.3-0.2-1.9,0.6-2.7,1.2c-1,0.7-1.8,1.6-2.6,2.5
					c-0.6,0.8-1.7,2.1-1.5,2.5C940.6,284.6,941.9,285.4,942.6,286z M955.6,273.1c-0.6-0.6-2.3-2.5-2.4-2.4c-2,1.5-3.8,3.3-5.7,5
					c1.2,0.9,2.3,2.4,3.6,2.6C953.1,278.7,955.7,275.8,955.6,273.1z"/>
				<path class="st0" d="M891.2,195.2c6.5-1.5,12.5-2.8,18.6-4.2c1.9-0.4,2.4,0.3,3,2.1c2,6.1-2.4,8.5-7.4,7.6
					c-0.6-0.1-1.4,0.2-2.1,0.5c-2,0.8-3.9,2-6,2.5c-2.4,0.6-4.2-0.6-4.9-2.9C891.9,199,891.7,197.3,891.2,195.2z M897.1,202.1
					c0.9-0.2,2.4-0.4,3.6-1c2.1-0.9,2.4-2.6,1.8-4.7c-0.7-2.5-2.2-1.3-3.6-1.1c-1.1,0.1-2.2,0.3-3.3,0.6c-1.2,0.4-3.2,0-2.8,2.2
					C893.3,200.2,893.9,202.1,897.1,202.1z M903.6,194.3c0.4,4.5,3.4,6.3,6.8,4c1-0.7,1.5-2.8,1.4-4.2c-0.1-2-1.8-1.2-3.1-1
					C907,193.5,905.4,193.9,903.6,194.3z"/>
				<path class="st0" d="M916.5,256.5c1.1-0.8,2.1-1.7,3.2-2.5c4.1-2.8,8.2-5.5,12.2-8.3c1.4-1,2.2-0.8,3.2,0.5
					c3.6,4.5,2.9,7.9-2.1,9.9c-0.5,0.2-1.3,0.6-1.7,0.3c-2.8-1.5-3.7,0.5-5,2.1c-1.4,1.7-3,3.3-4.5,5c-0.4-0.3-0.7-0.6-1.1-0.9
					c1.9-2.2,3.8-4.4,5.5-6.7c0.5-0.7,0.5-1.8,0.7-2.7c-1,0.1-2.2-0.2-3.1,0.3c-1.8,0.9-3.3,2.3-5,3.4c-0.6,0.4-1.3,0.5-2,0.7
					C916.9,257.2,916.7,256.9,916.5,256.5z M936.4,250.1c-0.9-1-2.4-2.9-2.7-2.8c-2.1,1.2-4,2.8-5.9,4.2c1.2,1,2.3,2.5,3.6,2.9
					C933.5,254.8,935.9,252.4,936.4,250.1z"/>
				<path class="st0" d="M1170.7,306.4c-4.2-5.5-8.5-10.9-12.1-16.9c0.3-0.2,0.7-0.5,1-0.8c1.4,1.7,2.9,3.4,4,5.2
					c1.4,2.3,2.6,1.4,4.2,0.3c1.5-1.1,3.3-1.8,1.4-4.1c-1.5-1.7-2.5-3.7-3.8-5.6c0.4-0.3,0.8-0.5,1.2-0.8
					c4.2,5.6,8.3,11.2,12.5,16.8c-0.3,0.3-0.6,0.5-0.9,0.8c-0.6-0.5-1.3-0.9-1.8-1.4c-1-1.1-1.8-2.4-2.7-3.6c-2.4-3.2-2.3-3-5.8-0.9
					c-2,1.3-1.6,2.3-0.5,3.8c1.6,2,3,4.1,4.5,6.1C1171.6,305.8,1171.1,306.1,1170.7,306.4z"/>
				<path class="st0" d="M1203,278.3c-1.5,1.6-2.7,3.5-4.4,4.3c-1.1,0.5-3.5,0-4.6-0.9c-3.5-2.8-6.6-5.9-9.8-8.9
					c-2-2-1.7-3.7,0.9-6.4c2.2-2.2,3.9-2.5,6-0.6c3.3,3,6.6,5.9,9.8,9C1201.7,275.5,1202.1,276.7,1203,278.3z M1202,279.4
					c-0.3-0.4-0.6-0.7-0.9-1.1c-0.3-0.6-0.5-1.4-0.9-1.8c-3.4-3.2-6.9-6.4-10.4-9.6c-1.6-1.4-3-0.6-4.2,0.6c-1.3,1.3-1.4,2.6,0,3.9
					c3.4,3.1,6.7,6.3,10.2,9.3c0.6,0.5,1.9,0.6,2.7,0.4C1199.7,280.9,1200.8,280,1202,279.4z"/>
				<path class="st0" d="M997.3,324.2c0.3-2.3,0.5-4.5,0.8-6.8c0.1-0.8,0.5-1.6,0.4-2.3c-0.1-0.8-0.6-1.6-1-2.4
					c-0.7,0.4-1.7,0.7-2.1,1.3c-0.9,1.5-1.5,3.2-2.3,4.8c-0.4,0.9-1.1,1.6-1.7,2.5c-0.3-0.1-0.6-0.3-0.9-0.4
					c0.3-0.8,0.4-1.7,0.8-2.5c2-4.2,3.9-8.5,6-12.7c0.6-1.3,2.1-3.4,2.7-3.2c2.5,0.5,5.3,1.2,6,4.3c0.6,2.3-1.1,5.9-3.5,6.6
					c-2.2,0.6-2.4,1.9-2.6,3.7c-0.2,2.5-0.7,4.9-1.1,7.4C998.2,324.3,997.7,324.2,997.3,324.2z M1005.1,307.1
					c-1.3-1.1-2.2-2.3-3.5-2.8c-0.5-0.2-1.8,0.9-2.5,1.7c-0.6,0.6-1,1.6-1.1,2.4c-0.2,1-0.2,2.9,0.1,3c1.4,0.3,3.2,0.7,4.2,0
					C1003.4,310.7,1004,308.9,1005.1,307.1z"/>
				<path class="st0" d="M900.9,226.3c6.5-1.5,13-3,19.5-4.5c0.6-0.1,1.6,0.4,1.9,0.9c0.3,0.5,0.1,1.8-0.3,2
					c-5.4,3.7-10.8,7.3-16.3,10.9c-0.1,0.1-0.5-0.1-1.8-0.5c1.8-1.3,3-2.3,4.3-3.1c1.6-0.9,2-1.9,1.2-3.6c-0.8-1.8-1.9-2-3.6-1.6
					c-1.6,0.4-3.2,0.5-4.8,0.7C901,227.2,900.9,226.7,900.9,226.3z M919.7,224.4c-0.1-0.2-0.2-0.5-0.4-0.7c-2.2,0.5-4.4,1.1-6.7,1.6
					c-3.6,0.8-3.8,1.5-1.1,4.4C914.2,227.9,917,226.2,919.7,224.4z"/>
				<path class="st0" d="M1079.1,31.5c0.9-0.7,1.7-1.4,3.2-2.7c-2.8,0.2-4.8,0.3-7.3,0.4c4.1-3.7,10.3-4.7,15.1-2.8
					C1086.8,32,1085.5,34.6,1079.1,31.5z"/>
				<path class="st0" d="M1218.8,258.1c-0.9-0.3-1.8-0.6-2.6-1c-4.7-2.8-9.2-5.8-13.9-8.5c-1.6-1-1.6-1.8-0.7-3.3
					c3-5,5.9-5.7,10.2-2.3c2.4,1.9,3,4.1,1.3,6.5c-1.6,2.3-0.9,3.4,1.3,4.5c1.7,0.9,3.3,2.1,4.9,3.2
					C1219.2,257.4,1219,257.7,1218.8,258.1z M1212.5,246.5c-0.6-0.6-1.5-2-2.7-2.6c-1.4-0.7-3.3-1.4-4.7-1c-2.7,0.9-2.8,3.5-0.4,5
					c1,0.6,2.1,1.3,3.1,1.9C1210.5,251.4,1212.2,250.6,1212.5,246.5z"/>
				<path class="st0" d="M1140.8,319.3c0.7,0.2,1.3,0.7,2,0.6c1.2,0,2.7,0,3.5-0.6c0.6-0.5,0.7-2.1,0.5-3.1
					c-0.8-3.3-3.6-4.3-6.6-4.8c-3.1-0.5-5.3-2-6.1-5.1c-0.5-2,0.5-3.5,2.2-4c1.8-0.5,3.8-0.2,5.7-0.2c0.1,0,0.2,0.8,0.3,1.3
					c-0.5,0.1-0.9,0.3-1.1,0.1c-2-1.6-4-1.4-5.2,0.7c-1.3,2.2,0.6,3.7,2.4,4.7c1,0.6,2.3,0.7,3.5,1c3.7,0.7,6,2.8,6.9,6.3
					c0.7,2.7-0.7,4.2-3.1,5C1143.8,321.8,1141.7,322.3,1140.8,319.3z"/>
				<path class="st0" d="M981.5,292.9c-3-1.3-5.8-4.8-8.7,0.2c-1.3,2.3-1.1,3.8,0.9,5.2c-1.8,0.2-3.6-0.1-4.8,0.6
					c-1.3,0.8-2,2.4-2.9,3.8c-0.8,1.2-0.7,1.2,3.6,6c-0.2,0.2-0.3,0.4-0.5,0.7c-1.6-1.3-3.8-2.4-4.7-4.1c-0.6-1.1,0.2-3.4,1.1-4.8
					c0.9-1.5,2.6-2.6,3.9-4c0.4-0.4,0.7-0.9,0.9-1.4C972.6,287.7,976.2,286.9,981.5,292.9z"/>
				<path class="st0" d="M961.8,212.5c-3.8,2.1-5,1.5-5-2.4c0-3,0-6.1,0-9.1c5.5-0.6,6.2-0.1,6,4.5
					C962.8,207.9,962.1,210.2,961.8,212.5c0-2.9,0.3-5.9,0-8.8c-0.1-0.9-1.7-1.7-2.6-2.6c-0.4,0.8-1.2,1.6-1.3,2.5
					c-0.2,1.7-0.1,3.4-0.1,5C957.9,212.6,957.9,212.6,961.8,212.5z"/>
				<path class="st0" d="M978.3,200.8c5.9-0.3,6.1,0,6.1,5c0,1.5,0.1,3-0.1,4.5c-0.2,2.5-2,3.2-4.3,3.2c-2.5-0.1-1.7-2-1.8-3.3
					C978.2,207.1,978.3,204.1,978.3,200.8z M979.2,206.3C979.2,206.3,979.3,206.3,979.2,206.3c0,1.4-0.1,2.8,0.1,4.1
					c0.1,0.7,1,1.9,1.6,1.9c0.7,0,2.1-0.8,2.1-1.4c0.2-2.6,0.3-5.4,0-8c-0.1-0.7-1.7-1.3-2.6-1.9c-0.4,0.8-1,1.5-1.2,2.4
					C979.1,204.3,979.2,205.3,979.2,206.3z"/>
				<path class="st0" d="M1010.7,236.3c0-3.4,0.1-6.7-0.1-10c0-0.6-1.5-1.8-1.9-1.6c-0.8,0.4-1.9,1.3-2,2.1c-0.2,3-0.1,6.1-0.5,9.8
					c-0.2-0.5-0.5-1-0.5-1.5c-0.1-3.2-0.3-6.3,0-9.5c0.1-0.6,2-1.4,3.1-1.5c0.9-0.1,2.6,0.8,2.6,1.2c0.1,3.5,0,7.1-0.2,10.6
					C1011.3,236.1,1010.8,236.2,1010.7,236.3z"/>
				<path class="st0" d="M1002.7,236.3c0-2.9,0-5.8,0-8.8c0-1.3,0.2-3-2-3s-2.2,1.7-2.2,3.2c0,2.7,0,5.4-0.2,8.2
					c-1.2-3.5-1.3-7.2-0.2-10.8c0.5-1.6,4.2-1.7,5.2-0.3C1004.5,226.5,1004,234.6,1002.7,236.3z"/>
				<path class="st0" d="M990.1,200.9c-2.7-0.2-2.9,1.4-2.8,3.3c0,1.6,0.2,3.2,0,4.7c-0.3,2.5,0.4,4,4,3.6c-3.7,1.5-5.5,0.3-5.4-2.9
					c0-1.9,0-3.9,0-5.8C985.9,201.3,986.7,200.7,990.1,200.9z"/>
				<path class="st0" d="M972,212.6c1.2-0.4,2.4-0.7,3.5-1.1c-0.5-1.4-0.8-2.8-1.4-4.1c-0.3-0.7-1.5-1-1.7-1.6
					c-0.5-1.4-0.5-2.9-0.8-4.3c1.5-0.2,2.9-0.5,4.4-0.7c0,0.2,0,0.4,0,0.6c-1.2,0.3-2.4,0.5-3.6,0.8c0.6,1.3,1.2,2.7,1.9,4
					s1.9,2.5,2.3,3.9c0.2,0.8-0.6,2.4-1.4,2.9c-0.8,0.5-2.2,0.1-3.4,0.1C971.9,212.9,972,212.8,972,212.6z"/>
				<path class="st0" d="M1054.2,42.6c-2.2-0.9-3.1-1.8-1.5-4c2.5-3.6,1.7-5.6-2.2-6.2c2.5-1.1,5.2,0.6,5,3.1
					C1055.2,37.7,1054.7,39.9,1054.2,42.6z"/>
				<path class="st0" d="M990,235.6c-0.6-1.8,0.1-3.5,2-5c0.4-0.3,1-0.5,1.2-0.9c0.6-1.3,1.5-2.7,1.3-3.9c-0.1-0.6-2.2-1-4.2-1.7
					c1.8,0.2,3.7-0.1,4.5,0.6c0.7,0.7,0.4,2.6,0.3,3.9c0,0.6-0.7,1.1-1.1,1.7C992.7,232,991.3,233.8,990,235.6z"/>
				<path class="st0" d="M970,212.9c-3.9,0.9-5.2,0.1-5.3-2.8c-0.1-2.1,0-4.3,0-6.5c0-2.8,1.6-3.3,4.1-2.9c-3,0.7-3.8,2.1-2.7,4.8
					c0.2,0.5,0.3,1.2,0.2,1.7C964.7,211,965.3,212.1,970,212.9z"/>
				<path class="st0" d="M1095.2,32.4c-2.5-3.5-2.2-4.8,1.7-7.3C1096.3,27.8,1095.8,29.9,1095.2,32.4z"/>
				<path class="st0" d="M1013.9,236c0-3.5-0.5-7.1,0.2-10.4c0.5-2.5,3-1.8,5.2-1c-1.6,0.2-3.5,0-4.1,0.8c-0.7,0.8-0.1,2.6-0.2,3.9
					c-0.1,2.2-0.2,4.5-0.3,6.7C1014.4,236,1014.1,236,1013.9,236z"/>
				<path class="st0" d="M1204.4,180.2c1.2-0.1,2.3-0.3,3.5-0.5c-11.3,4.6-23.6,5.4-35.4,8.2c0.1,0.3,0.1,0.6,0.1,0.9
					c4.7-0.7,9.4-1.2,14.1-2c4.9-0.9,9.8-2,14.6-3.1c4.8-1.1,9.5-2.3,14.2-3.5c4.7-1.1,9.4-2.3,14.2-3.4c0.1,0.2,0.2,0.5,0.3,0.7
					c-1.2,0.5-2.4,1.1-3.6,1.5c-17.8,5.3-35.8,10-54.4,11.8c-5.1,0.5-10.4,0.2-15.5-0.4c-4.5-0.5-8.6-2.4-11.5-6.1
					c-2.3-3-2-4.2,1.6-4.9c5.4-1,10.8-1.5,16.3-2.1c2.2-0.2,4.6,0.4,6.5-1.5c0.7-0.6,2.1-0.6,3.2-0.7c11.5-1,22.7-3.7,33.8-6.7
					c1.8-0.5,3.9-0.7,5.7-0.5c1.4,0.2,3.5,0.9,4,2c0.5,1.3,0.2,3.6-0.7,4.6c-1.4,1.5-3.5,2.5-5.5,3.4c-1.7,0.8-3.6,1.2-5.5,1.8
					C1204.3,179.9,1204.3,180,1204.4,180.2z"/>
				<path class="st0" d="M1139.4,176.9c3.9-6.6,10.6-7.8,17.5-8.5c7.5-0.8,15-1.7,22.5-2.5c0.6-0.1,1.1,0,2.7,0.1
					c-1.5,0.8-2.3,1.1-3.1,1.5c0.2,0.2,0.4,0.5,0.6,0.5c4-0.6,8.1-0.9,12.1-1.8c11.6-2.6,23.2-5.3,34-10.5c0.6-0.3,1.1-0.7,1.7-0.6
					c0.9,0,1.7,0.4,2.5,0.6c-0.4,0.9-0.6,2.2-1.3,2.5c-3.6,1.5-7.4,2.9-11.1,4.2c-7.1,2.4-14.1,5.1-21.4,6.7
					c-7.1,1.5-14.5,2-21.8,2.6c-8.6,0.7-17.2,1.2-25.9,1.6c-3.3,0.2-5.7,1.5-7.1,4.4c-0.9,1.8-2.2,2-4,1.3c-1.7-0.6-3.5-1-5.3-1.4
					c-6.5-1.2-11.7,0.6-15.2,6.2c-1.2,2-2.5,2.6-4.7,1.7c-4-1.7-8-2.1-12,0.3c-1,0.6-2.4,0.6-3.8,1c0.2-5.6,3.4-10,8.2-11.5
					c3.9-1.2,7.8-2.5,11.7-3.3c2.1-0.4,4.3,0.2,6.5,0.3c0.7,0,1.4,0.3,2.1,0.3C1132.8,171.9,1133.2,172,1139.4,176.9z"/>
				<path class="st0" d="M1033.6,293.3c4.1-26.2,10.1-52,20-76.7c0.4,0.1,0.9,0.2,1.3,0.3c-6.7,25.6-13.3,51.1-20,76.7
					C1034.4,293.5,1034,293.4,1033.6,293.3z"/>
				<path class="st0" d="M1075.3,230.9c-4.6,22.3-9.3,44.5-13.9,66.8C1063.7,274.9,1066.8,252.4,1075.3,230.9z"/>
				<path class="st0" d="M1045.7,188.9c0.3,0,0.6-0.2,0.9-0.1c5,0.2,10.1,0.4,15.2,0.7c-0.2,2.5-1.1,3.9-3.8,3.3
					c-3.4-0.7-6.8-1.2-10.1-2c-0.9-0.2-1.7-0.8-2.5-1.2C1045.5,189.3,1045.6,189.1,1045.7,188.9z"/>
				<path class="st0" d="M1050.4,322.6c-2,1.4-3.2,3-4.3,2.9c-1.1-0.1-2.8-1.6-3.1-2.7c-0.5-1.9,1.1-3.4,3-3.2
					C1047.3,319.8,1048.4,321.2,1050.4,322.6z"/>
				<path class="st0" d="M1084.3,187.9c-1.2,0.9-2.4,2.2-3.8,2.4c-2.1,0.3-3.4-1.5-3-3.1c0.3-1.1,2.1-2.4,3.4-2.6
					c1-0.1,2.2,1.3,3.3,2.1C1084.2,187.1,1084.2,187.5,1084.3,187.9z"/>
				<path class="st0" d="M1043.7,318.3c-1.9,2.6-3.3,5.2-0.3,8.2c-0.6,0.1-1.1,0.2-1.7,0.3c-0.7-1.5-2.1-3-1.9-4.4
					c0.2-1.6,1.8-3.1,2.7-4.6C1042.9,317.9,1043.3,318.1,1043.7,318.3z"/>
				<path class="st0" d="M1076.8,192.1c-0.7-1.7-1.9-3.4-1.9-5c0-1.5,1.5-3,2.3-4.5c0.3,0.2,0.7,0.3,1,0.5c-0.7,1.4-1.9,2.8-1.9,4.3
					c0,1.4,1.1,2.8,1.7,4.2C1077.6,191.7,1077.2,191.9,1076.8,192.1z"/>
				<path class="st0" d="M1078.6,165.5c0.7-3.8,3.2-5.1,5.3-3.4C1082.2,163.3,1080.4,164.4,1078.6,165.5z"/>
				<path class="st0" d="M1174.6,130.3c-1-10.5,9.6-22.5,16.7-24.6c2.3-0.7,5-0.9,7.5-0.6c3.2,0.3,4.2,2.5,3.3,5.5
					c-1.5,5.1-3,10.3-4.2,15.5c-0.5,2-0.4,4.1-0.5,6.2c-0.1,5.1-3.8,9.5-9,10.6C1179.4,144.7,1174.6,140.4,1174.6,130.3z"/>
				<path class="st0" d="M1089.9,113.6c0.4,4.2,0.5,7.6,1,11c0.7,4.9,2.5,9.4,6.7,12.6c1.6,1.2,1.3,2.3-0.2,3.2
					c-3,1.9-6.1,3.1-9.8,1.7c-3.5-1.4-5.1-4.1-5.5-7.6C1081.3,126.6,1084,119.9,1089.9,113.6z"/>
				<path class="st0" d="M1110.1,115.6c0,5.6-1.9,10.6-4.6,15.3c-0.5,0.8-1.5,1.8-2.4,1.8c-0.6,0.1-1.7-1-2.1-1.8
					c-3.3-5.9-1-18,4.1-22.5c2-1.8,3.1-1.5,3.8,1.1C1109.6,111.4,1109.8,113.5,1110.1,115.6z"/>
				<path class="st0" d="M1055.6,134c-2,4.7-7.9,7.9-12.5,7.3c-0.6-0.1-1.6-0.7-1.6-0.9c0.1-0.8,0.4-2,1-2.3
					c2.9-1.3,5.9-2.5,8.9-3.5C1052.6,134.1,1054,134.2,1055.6,134z"/>
				<path class="st0" d="M1108.1,279.8c-4.1-0.1-7.3-4.2-6.3-8.4c0.9-4.1,3.8-6.6,7.8-8c0.6-0.2,1.4-0.2,2,0.1
					c3.3,1.3,5.6,5.9,4.8,9.7C1115.6,277,1111.9,279.9,1108.1,279.8z"/>
				<path class="st0" d="M1170.4,222.5c4.1,0,7.8,3.4,7.8,7.2c0.1,3.8-3.6,7.1-7.9,7.1c-4.1,0.1-8-3.5-8-7.1
					C1162.6,226,1166.4,222.5,1170.4,222.5z"/>
				<path class="st0" d="M942.6,286c-0.7-0.6-2-1.5-2.9-2.7c-0.2-0.3,0.9-1.7,1.5-2.5c0.8-0.9,1.6-1.8,2.6-2.5
					c0.8-0.6,2.4-1.5,2.7-1.2c1,1,2.1,2.2,2.4,3.6C949.2,282.6,945.4,286.1,942.6,286z"/>
				<path class="st0" d="M955.6,273.1c0,2.7-2.6,5.6-4.5,5.2c-1.3-0.3-2.4-1.7-3.6-2.6c1.9-1.7,3.7-3.5,5.7-5
					C953.3,270.6,955.1,272.5,955.6,273.1z"/>
				<path class="st0" d="M897.1,202.1c-3.1,0-3.8-1.9-4.2-3.9c-0.4-2.2,1.7-1.8,2.8-2.2c1-0.4,2.2-0.5,3.3-0.6
					c1.3-0.2,2.9-1.4,3.6,1.1c0.6,2.1,0.3,3.8-1.8,4.7C899.4,201.7,898,201.9,897.1,202.1z"/>
				<path class="st0" d="M903.6,194.3c1.8-0.4,3.5-0.8,5.1-1.2c1.2-0.3,3-1,3.1,1c0.1,1.4-0.4,3.5-1.4,4.2
					C907,200.7,904,198.9,903.6,194.3z"/>
				<path class="st0" d="M936.4,250.1c-0.5,2.3-3,4.8-5,4.3c-1.4-0.3-2.4-1.9-3.6-2.9c2-1.5,3.8-3,5.9-4.2
					C934,247.1,935.5,249.1,936.4,250.1z"/>
				<path class="st0" d="M1202,279.4c-1.2,0.6-2.2,1.4-3.5,1.8c-0.8,0.2-2.1,0.1-2.7-0.4c-3.5-3-6.8-6.2-10.2-9.3
					c-1.4-1.3-1.3-2.6,0-3.9c1.2-1.3,2.6-2.1,4.2-0.6c3.5,3.1,6.9,6.3,10.4,9.6c0.5,0.4,0.6,1.2,0.9,1.8
					C1201.3,278.7,1201.7,279.1,1202,279.4z"/>
				<path class="st0" d="M1005.1,307.1c-1.1,1.8-1.7,3.5-2.8,4.3c-1,0.6-2.8,0.3-4.2,0c-0.3-0.1-0.3-2-0.1-3
					c0.1-0.9,0.5-1.8,1.1-2.4c0.7-0.8,2-1.9,2.5-1.7C1002.8,304.8,1003.8,306,1005.1,307.1z"/>
				<path class="st0" d="M919.7,224.4c-2.7,1.8-5.5,3.5-8.2,5.2c-2.7-2.9-2.5-3.6,1.1-4.4c2.2-0.5,4.5-1.1,6.7-1.6
					C919.5,223.9,919.6,224.2,919.7,224.4z"/>
				<path class="st0" d="M1212.5,246.5c-0.3,4.1-2.1,5-4.8,3.3c-1-0.6-2.1-1.3-3.1-1.9c-2.3-1.5-2.3-4.1,0.4-5
					c1.3-0.4,3.3,0.2,4.7,1C1211.1,244.5,1211.9,245.8,1212.5,246.5z"/>
				<path class="st0" d="M961.8,212.5c-3.9,0.1-3.9,0.1-3.9-3.8c0-1.7-0.1-3.4,0.1-5c0.1-0.9,0.8-1.7,1.3-2.5
					c0.9,0.9,2.5,1.7,2.6,2.6C962.1,206.6,961.8,209.6,961.8,212.5L961.8,212.5z"/>
				<path class="st0" d="M979.2,206.3c0-1-0.2-2,0-3c0.2-0.8,0.8-1.6,1.2-2.4c0.9,0.6,2.5,1.2,2.6,1.9c0.3,2.6,0.2,5.3,0,8
					c0,0.6-1.4,1.4-2.1,1.4c-0.6,0-1.4-1.1-1.6-1.9C979.1,209.1,979.3,207.7,979.2,206.3C979.3,206.3,979.3,206.3,979.2,206.3z"/>
			</g>
		</g>
	</g>
</g>
</svg>
